
<svg xmlns="http://www.w3.org/2000/svg" width="1920" height="1080" viewBox="0 0 1920 1080">
  <filter id="blur" x="-50%" y="-50%" width="200%" height="200%">
    <feGaussianBlur in="SourceGraphic" stdDeviation="15" />
  </filter>
  <circle r="1.5010385477932873" cx="964.7369892467591" cy="1067.403576512457" fill="#ffffff"/>
<circle r="1.2402528287255148" cx="1562.3827704917567" cy="305.71076783368426" fill="#fcfcfc"/>
<circle r="1.4349882689108195" cx="1526.1604184820012" cy="26.84157544624204" fill="#fcfcfc"/>
<circle r="1.4956509847586255" cx="153.73488880452427" cy="115.9867812034306" fill="#ffffff"/>
<circle r="1.582964011859553" cx="1686.7668435010737" cy="216.54103850233798" fill="#f0f0f0"/>
<circle r="1.423323255335441" cx="1295.3843579995691" cy="811.7672085104533" fill="#fefefe"/>
<circle r="1.63094789125172" cx="1724.4441776504784" cy="427.9433393423936" fill="#f7f7f7"/>
<circle r="1.4390933628851552" cx="1387.4323775174362" cy="238.22807511842828" fill="#fefefe"/>
<circle r="1.54480233179596" cx="1126.7122981298064" cy="847.4946897541906" fill="#fdfdfd"/>
<circle r="1.4559474168414976" cx="942.3523267033047" cy="817.2156897359789" fill="#f8f8f8"/>
<circle r="1.7535966942514771" cx="1173.0489767018141" cy="376.34526376015845" fill="#ffffff"/>
<circle r="1.318099569905124" cx="1411.282016855642" cy="791.1347481892005" fill="#f9f9f9"/>
<circle r="1.4465142570018557" cx="1391.522726940233" cy="0.8254843327147832" fill="#fdfdfd"/>
<circle r="1.389582233204117" cx="1338.6917253213687" cy="985.4855251145812" fill="#fdfdfd"/>
<circle r="1.5017103615754055" cx="564.8863047312769" cy="658.8946844595748" fill="#fefefe"/>
<circle r="1.5753581220190118" cx="47.1569220564642" cy="641.2738782419274" fill="#f6f6f6"/>
<circle r="1.4401919117509476" cx="80.04905607072786" cy="684.2023270159887" fill="#fafafa"/>
<circle r="1.5480799236289158" cx="262.4054083023334" cy="290.53575866448114" fill="#fdfdfd"/>
<circle r="1.5925538421415273" cx="1810.8867552176314" cy="819.2738684551779" fill="#ffffff"/>
<circle r="1.602220720848639" cx="1044.2707388565645" cy="575.5356778883634" fill="#ffffff"/>
<circle r="1.642721997802364" cx="1509.5994315823755" cy="542.0680076365843" fill="#ffffff"/>
<circle r="1.594339675685794" cx="594.2318238184766" cy="1020.4246838584186" fill="#fdfdfd"/>
<circle r="1.3941020970256144" cx="1370.3872235741453" cy="575.0979175716477" fill="#fefefe"/>
<circle r="1.4643471335110116" cx="1630.7237955611952" cy="1017.7820937339726" fill="#fcfcfc"/>
<circle r="1.3032300001155366" cx="989.3280866363539" cy="22.720474418669273" fill="#ffffff"/>
<circle r="1.477836731654476" cx="1464.8248903940575" cy="248.71855029998574" fill="#f6f6f6"/>
<circle r="1.5097473515213669" cx="1770.4691119528231" cy="207.3803672729421" fill="#fdfdfd"/>
<circle r="1.3909303894369913" cx="914.5017639733001" cy="888.8956621051752" fill="#fafafa"/>
<circle r="1.6963031640313417" cx="935.5174380259494" cy="343.00535325060065" fill="#ffffff"/>
<circle r="1.5209579745820805" cx="517.8246556787144" cy="341.82037368541677" fill="#ffffff"/>
<circle r="1.6111890914919968" cx="1761.8064830394173" cy="228.90528247662897" fill="#ffffff"/>
<circle r="1.5836481767530026" cx="1658.8567986616554" cy="456.2499915890479" fill="#ffffff"/>
<circle r="1.6553990043247893" cx="1403.5942341365105" cy="890.5408007078339" fill="#fbfbfb"/>
<circle r="1.5867613016406859" cx="1152.229929044375" cy="756.379039713981" fill="#f9f9f9"/>
<circle r="1.5804229267769772" cx="1689.9721244333184" cy="657.3780817644881" fill="#fdfdfd"/>
<circle r="1.4888045167828141" cx="884.0162385371333" cy="72.49785862029526" fill="#f9f9f9"/>
<circle r="1.7202810973008464" cx="1726.4031849559897" cy="873.327647895384" fill="#ffffff"/>
<circle r="1.3975691042584297" cx="1296.3765048344344" cy="891.0871451332233" fill="#f8f8f8"/>
<circle r="1.671739032679009" cx="532.5291297152693" cy="17.16190915076091" fill="#ffffff"/>
<circle r="1.4256719713032324" cx="1150.8936546402597" cy="208.59934394508255" fill="#fefefe"/>
<circle r="1.4896991145861893" cx="726.1715695596771" cy="302.9482373404603" fill="#fdfdfd"/>
<circle r="1.4132295809498887" cx="1661.1741077677543" cy="120.9974379527764" fill="#ffffff"/>
<circle r="1.3627592450604529" cx="1586.2472705125385" cy="35.293983029231136" fill="#ffffff"/>
<circle r="1.2739214356130144" cx="279.53106380171386" cy="70.28980445053615" fill="#ffffff"/>
<circle r="1.396612415217845" cx="280.4665244341166" cy="610.3172678340957" fill="#fdfdfd"/>
<circle r="1.4864627403025303" cx="140.25223035994082" cy="214.55692870472248" fill="#fbfbfb"/>
<circle r="1.4150926006679043" cx="1855.7058885901777" cy="275.4754761217472" fill="#ffffff"/>
<circle r="1.3472528056992146" cx="626.8723049544201" cy="246.21224654239646" fill="#fdfdfd"/>
<circle r="1.3672081718079212" cx="1037.1649960523966" cy="240.182345483557" fill="#fdfdfd"/>
<circle r="1.552968576929609" cx="377.19403692190036" cy="431.8350845652576" fill="#fefefe"/>
<circle r="1.5475629877408092" cx="1138.7615847029697" cy="300.39442086343286" fill="#fefefe"/>
<circle r="1.5342939085690042" cx="1199.8130443022283" cy="766.5461992669617" fill="#ffffff"/>
<circle r="1.6243666747629395" cx="1223.4583384769949" cy="881.6811223557538" fill="#f6f6f6"/>
<circle r="1.3038737899941848" cx="1423.9868345035625" cy="1007.5955725942268" fill="#ffffff"/>
<circle r="1.444466008513655" cx="1012.0634584978541" cy="168.43413677007388" fill="#f9f9f9"/>
<circle r="1.3221361516061287" cx="519.6805372075503" cy="406.67743061381555" fill="#fafafa"/>
<circle r="1.4504709849089237" cx="370.1047322762182" cy="285.2975276707887" fill="#fafafa"/>
<circle r="1.7389296580340605" cx="965.2751301292836" cy="175.44392533110195" fill="#f8f8f8"/>
<circle r="1.3592445340726709" cx="100.42871566678215" cy="950.1968089823056" fill="#f9f9f9"/>
<circle r="1.44130644214245" cx="1133.1336357947225" cy="1037.6902867480183" fill="#ffffff"/>
<circle r="1.5139497180447865" cx="974.806536510549" cy="1064.1659716224183" fill="#ffffff"/>
<circle r="1.655613052403615" cx="1514.9248109465957" cy="300.2709930704679" fill="#fefefe"/>
<circle r="1.409086637677642" cx="502.65075280846713" cy="58.53348507504434" fill="#f9f9f9"/>
<circle r="1.574368959930358" cx="1634.686024369324" cy="85.2157736520532" fill="#fdfdfd"/>
<circle r="1.4809829136607167" cx="1689.718643215509" cy="25.589249968347193" fill="#f8f8f8"/>
<circle r="1.5427496455185312" cx="1349.7868377238995" cy="40.336531645488094" fill="#fafafa"/>
<circle r="1.473153840455937" cx="1652.3475574267782" cy="191.89007526311525" fill="#fcfcfc"/>
<circle r="1.3806404186054264" cx="692.4292167149783" cy="889.9852998241529" fill="#fdfdfd"/>
<circle r="1.6910610736562486" cx="1084.1549605477471" cy="648.2038331213828" fill="#ffffff"/>
<circle r="1.4420162055514012" cx="1662.9431001448254" cy="448.3070713709159" fill="#ffffff"/>
<circle r="1.5537270070530824" cx="1746.9711497346216" cy="805.8239968163946" fill="#f5f5f5"/>
<circle r="1.3289060854758608" cx="758.2994664957821" cy="684.7355361422244" fill="#fcfcfc"/>
<circle r="1.49874287158491" cx="1461.5291784809463" cy="180.4103265994841" fill="#ffffff"/>
<circle r="1.4810572791236336" cx="1098.0811873567386" cy="383.58792234438437" fill="#f5f5f5"/>
<circle r="1.4397094107637183" cx="1105.5959463456209" cy="572.4210040705165" fill="#ffffff"/>
<circle r="1.4076011837153284" cx="205.36066757804903" cy="99.77437559832141" fill="#ffffff"/>
<circle r="1.6001670359934184" cx="1434.3214876568" cy="690.850851352076" fill="#f9f9f9"/>
<circle r="1.5519271760983737" cx="1900.1787876662515" cy="297.5041171945225" fill="#ffffff"/>
<circle r="1.5361668577468817" cx="1426.4628893065594" cy="113.8956613479287" fill="#fcfcfc"/>
<circle r="1.6002816089734275" cx="1141.3073692738076" cy="872.2972408372848" fill="#fafafa"/>
<circle r="1.4886424275248062" cx="477.48826531862187" cy="386.69437375377646" fill="#ffffff"/>
<circle r="1.3364355111375326" cx="146.08064508753955" cy="596.2512545887994" fill="#ffffff"/>
<circle r="1.536762468769636" cx="1248.3530279920133" cy="818.8685499135391" fill="#ffffff"/>
<circle r="1.6982736120974933" cx="1916.0270941129706" cy="948.6936155420791" fill="#ffffff"/>
<circle r="1.4556430024750235" cx="1514.8906811788581" cy="991.8355420947584" fill="#ffffff"/>
<circle r="1.5009664221289103" cx="1663.6366722023085" cy="1055.067122721213" fill="#ffffff"/>
<circle r="1.5783519348725426" cx="868.1549256563327" cy="18.221268869926387" fill="#ffffff"/>
<circle r="1.6867643404059127" cx="1146.2018282637248" cy="103.71603698283865" fill="#ffffff"/>
<circle r="1.5349779780234503" cx="1553.6313119219485" cy="364.8354236076241" fill="#ffffff"/>
<circle r="1.4882200486834072" cx="124.79116999026765" cy="34.094246635196164" fill="#fbfbfb"/>
<circle r="1.3565514230865081" cx="756.388939850832" cy="447.8044585178342" fill="#fafafa"/>
<circle r="1.563390716320201" cx="1712.1783948296618" cy="688.9916898096824" fill="#ffffff"/>
<circle r="1.4892795305338453" cx="1117.5205660043366" cy="147.7283667254311" fill="#fbfbfb"/>
<circle r="1.5599370558886836" cx="457.70850757897006" cy="979.3023101238045" fill="#ffffff"/>
<circle r="1.7345140627148126" cx="1905.705777532547" cy="740.357754555172" fill="#ffffff"/>
<circle r="1.4740472489772594" cx="229.1983497034118" cy="102.2061152228875" fill="#fdfdfd"/>
<circle r="1.237641303514867" cx="1756.5556475742383" cy="406.15235703797606" fill="#ffffff"/>
<circle r="1.5435121699504188" cx="34.5695816729431" cy="65.29518212223995" fill="#ffffff"/>
<circle r="1.4544262152298781" cx="1220.410705527605" cy="862.8129073148476" fill="#ffffff"/>
<circle r="1.5245538485778465" cx="761.8267519584709" cy="604.3093092254892" fill="#fefefe"/>
<circle r="1.4282715957933598" cx="238.1491595311349" cy="112.98094655789305" fill="#f7f7f7"/>
<circle r="1.4139056721867074" cx="1022.2494308122787" cy="39.8778873152102" fill="#f9f9f9"/>
<circle r="1.3980118215938946" cx="597.5075484576657" cy="52.60995039501082" fill="#ffffff"/>
<circle r="1.3865380935080351" cx="1495.1326656485828" cy="668.5479839572262" fill="#fdfdfd"/>
<circle r="1.5765744201823033" cx="934.3055915974721" cy="108.97257401566702" fill="#fdfdfd"/>
<circle r="1.3530136181164947" cx="1486.509785055563" cy="972.734690102595" fill="#f9f9f9"/>
<circle r="1.6162013915904283" cx="1045.6211893375953" cy="650.0116335400735" fill="#fbfbfb"/>
<circle r="1.7026827599408056" cx="226.3487175547708" cy="599.7215141546831" fill="#fdfdfd"/>
<circle r="1.5893847896929723" cx="112.8645828121963" cy="981.5993563377657" fill="#ffffff"/>
<circle r="1.5407305454112692" cx="488.14463629216226" cy="681.4034252663612" fill="#ffffff"/>
<circle r="1.4781580220460153" cx="182.79091140576634" cy="537.6930988378367" fill="#fefefe"/>
<circle r="1.5773595640896358" cx="332.11945964560647" cy="770.0118895501705" fill="#ffffff"/>
<circle r="1.4395301779337792" cx="518.4022875441075" cy="870.9399012364213" fill="#ffffff"/>
<circle r="1.4141175568525992" cx="1612.886479185736" cy="0.8213794390987639" fill="#fdfdfd"/>
<circle r="1.5270297818878091" cx="166.36895967734966" cy="540.7431553862805" fill="#ffffff"/>
<circle r="1.6181605160049208" cx="1119.8474539882602" cy="85.98553569797693" fill="#ffffff"/>
<circle r="1.4184950811959367" cx="1488.9706068997984" cy="754.6756863645235" fill="#ffffff"/>
<circle r="1.4912490265692353" cx="795.9239431782198" cy="172.97139668292473" fill="#fdfdfd"/>
<circle r="1.6208458849784173" cx="1459.8190083149125" cy="92.98251911964034" fill="#fbfbfb"/>
<circle r="1.4100508408071624" cx="1798.9652596571939" cy="405.9362911799194" fill="#ffffff"/>
<circle r="1.4984257639995988" cx="1041.7468878887796" cy="819.5726471071257" fill="#ffffff"/>
<circle r="1.4611699074165359" cx="941.4630505842698" cy="589.3938043153364" fill="#fdfdfd"/>
<circle r="1.5425355612730594" cx="1799.5708959398835" cy="675.7999546056033" fill="#fcfcfc"/>
<circle r="1.6028543199263419" cx="1371.405648879003" cy="295.1471767260935" fill="#fefefe"/>
<circle r="1.501577868968198" cx="1663.0158975446814" cy="224.5833759152097" fill="#ffffff"/>
<circle r="1.5816123095971135" cx="452.0346688436036" cy="784.6011446489437" fill="#f5f5f5"/>
<circle r="1.5469265715633962" cx="714.2444366439834" cy="365.1877428305636" fill="#f6f6f6"/>
<circle r="1.55418186405142" cx="1448.1036244304555" cy="565.1601575675603" fill="#fdfdfd"/>
<circle r="1.5634486992698409" cx="877.42437873953" cy="1001.4954995496983" fill="#f9f9f9"/>
<circle r="1.4908698923266177" cx="45.53620853360009" cy="708.3774121302868" fill="#ffffff"/>
<circle r="1.4072856187380691" cx="923.6466354263365" cy="579.8140491964989" fill="#fefefe"/>
<circle r="1.5435711998324322" cx="726.4769425224073" cy="447.5185488668719" fill="#ffffff"/>
<circle r="1.497030653084223" cx="1661.6278708826537" cy="966.3169921648783" fill="#ffffff"/>
<circle r="1.5884412089426942" cx="1485.1324045832048" cy="344.6432287962083" fill="#fcfcfc"/>
<circle r="1.6112775128792634" cx="1192.8201179411112" cy="289.0824955570828" fill="#ffffff"/>
<circle r="1.469497445979419" cx="1456.550980485685" cy="306.22001685675957" fill="#ffffff"/>
<circle r="1.5043625640416383" cx="1730.0039443140786" cy="392.875839432878" fill="#ffffff"/>
<circle r="1.5682692971277552" cx="802.0741502157579" cy="154.63943916619797" fill="#fafafa"/>
<circle r="1.4537518344602638" cx="507.0114771365676" cy="847.071962183663" fill="#fbfbfb"/>
<circle r="1.4571415279780122" cx="272.83425757108216" cy="503.75800166489375" fill="#ffffff"/>
<circle r="1.4461972048224916" cx="746.0010978194205" cy="45.94102706144673" fill="#ffffff"/>
<circle r="1.4332970327490504" cx="1712.3631031557215" cy="864.373786652743" fill="#fdfdfd"/>
<circle r="1.6180984445051612" cx="1496.5201531188632" cy="703.1803391171081" fill="#ffffff"/>
<circle r="1.595199038442464" cx="938.4951384745035" cy="82.29424070832727" fill="#fefefe"/>
<circle r="1.4721056022581602" cx="51.54800673773458" cy="489.3362946344856" fill="#ffffff"/>
<circle r="1.378461605729747" cx="995.9318169361871" cy="50.9761528068677" fill="#fbfbfb"/>
<circle r="1.4749061027264718" cx="1257.1222068710867" cy="468.08165620692677" fill="#f6f6f6"/>
<circle r="1.6630163855544122" cx="1706.6915493058339" cy="885.4984266365519" fill="#ffffff"/>
<circle r="1.5400150661751086" cx="1720.585842822388" cy="1009.7460799973314" fill="#fdfdfd"/>
<circle r="1.3997872093869348" cx="24.79290613655479" cy="1011.2990852373086" fill="#fefefe"/>
<circle r="1.5129083687148888" cx="167.70857768486565" cy="240.46024286257526" fill="#f2f2f2"/>
<circle r="1.4898301638265479" cx="1833.2740335205242" cy="156.91529026269492" fill="#fbfbfb"/>
<circle r="1.5616229393074803" cx="1502.8810953376965" cy="867.687905402102" fill="#ffffff"/>
<circle r="1.3626619243141724" cx="1015.5767546512038" cy="229.11772090292922" fill="#ffffff"/>
<circle r="1.3802148996082797" cx="1232.929777513058" cy="97.35740365520226" fill="#ffffff"/>
<circle r="1.3678773962044346" cx="926.9627010308444" cy="200.7023428677395" fill="#ffffff"/>
<circle r="1.482365395082488" cx="547.6881141373556" cy="686.6568447993457" fill="#ffffff"/>
<circle r="1.4344032849830055" cx="852.8065508116281" cy="986.6084360572233" fill="#fafafa"/>
<circle r="1.4513690728714068" cx="318.0414486730423" cy="385.3572502320328" fill="#ffffff"/>
<circle r="1.6522764617167331" cx="825.4467977740513" cy="535.1513958529804" fill="#ffffff"/>
<circle r="1.388729250934681" cx="1798.1485903407847" cy="157.26814687593776" fill="#fefefe"/>
<circle r="1.7658999673567928" cx="1796.6450358856023" cy="223.3310613466882" fill="#fefefe"/>
<circle r="1.5516557679313179" cx="370.85253866776617" cy="375.9461941655689" fill="#ffffff"/>
<circle r="1.4575764220868763" cx="1908.9172647501769" cy="467.66446355137464" fill="#fcfcfc"/>
<circle r="1.4880782880972294" cx="1327.2116876702582" cy="262.91714851416407" fill="#fefefe"/>
<circle r="1.426957106758972" cx="295.45325593866755" cy="26.172664579538917" fill="#ffffff"/>
<circle r="1.4703531188855121" cx="1699.500781889121" cy="473.0970089064416" fill="#fbfbfb"/>
<circle r="1.408992433511201" cx="1811.561625573979" cy="396.2946718528837" fill="#ffffff"/>
<circle r="1.2864343713425588" cx="1562.2698151450622" cy="241.96020540635595" fill="#f7f7f7"/>
<circle r="1.6135653597193553" cx="1401.4438631359142" cy="841.7958127255756" fill="#ffffff"/>
<circle r="1.6396557969729506" cx="678.3544279257515" cy="561.7701988981618" fill="#fafafa"/>
<circle r="1.6067514454849001" cx="87.50024864066638" cy="1077.2864006904847" fill="#fcfcfc"/>
<circle r="1.463471876512402" cx="1402.9592531299618" cy="1045.6878769267405" fill="#fefefe"/>
<circle r="1.4073318392367868" cx="1396.767826404695" cy="519.1268683470677" fill="#ffffff"/>
<circle r="1.4454459813116731" cx="491.56899586101446" cy="1003.1456392874954" fill="#fdfdfd"/>
<circle r="1.4500038827733233" cx="112.6462363641587" cy="628.368822333832" fill="#fefefe"/>
<circle r="1.3519766840863474" cx="1142.3580224669295" cy="280.5963319376194" fill="#fdfdfd"/>
<circle r="1.670406903314098" cx="1198.7635398599323" cy="18.129661652210203" fill="#ffffff"/>
<circle r="1.4647151238013054" cx="1279.5060549421476" cy="158.67840067782544" fill="#fcfcfc"/>
<circle r="1.4090717376072426" cx="1558.262070937504" cy="833.186223248775" fill="#f6f6f6"/>
<circle r="1.509536211832124" cx="1101.2181517487238" cy="961.3604124405475" fill="#f7f7f7"/>
<circle r="1.616417825379435" cx="1493.851357991119" cy="48.89197799835038" fill="#fdfdfd"/>
<circle r="1.4899757155125632" cx="1213.340087365329" cy="1010.0508149837398" fill="#ffffff"/>
<circle r="1.6913749979581547" cx="786.6631885846131" cy="489.75985140612835" fill="#fcfcfc"/>
<circle r="1.4680417086785418" cx="353.29890592082427" cy="172.86862565977827" fill="#fbfbfb"/>
<circle r="1.6153324873826773" cx="717.3416461081742" cy="339.7637245108117" fill="#f6f6f6"/>
<circle r="1.5139469127253027" cx="1150.2828786553328" cy="944.5097730090095" fill="#ffffff"/>
<circle r="1.4829406178124505" cx="703.8549418479952" cy="164.2552534875854" fill="#ffffff"/>
<circle r="1.3505181945562605" cx="1746.8716239669548" cy="699.235784481678" fill="#f6f6f6"/>
<circle r="1.4384139004149843" cx="1327.5099548600072" cy="576.6174311337127" fill="#ffffff"/>
<circle r="1.5137749941332428" cx="463.8685651388447" cy="1078.0363286285224" fill="#ffffff"/>
<circle r="1.5286100387721793" cx="1705.1636803930294" cy="326.6178624067835" fill="#ffffff"/>
<circle r="1.523859550554197" cx="463.4099377370618" cy="239.41008771315626" fill="#ffffff"/>
<circle r="1.6576725493168927" cx="1631.1873617901151" cy="201.35088525558095" fill="#f9f9f9"/>
<circle r="1.5942110432051275" cx="866.5959665133258" cy="62.37938284877283" fill="#fdfdfd"/>
<circle r="1.567408808502589" cx="967.5921783299844" cy="693.1122794972664" fill="#f4f4f4"/>
<circle r="1.5410674549546208" cx="1403.1428791609455" cy="588.0448351618776" fill="#ffffff"/>
<circle r="1.3845392891079977" cx="1441.8423780966389" cy="671.1585884385563" fill="#ffffff"/>
<circle r="1.4700673532832267" cx="647.3940722578521" cy="27.39798485266073" fill="#f8f8f8"/>
<circle r="1.534709142630524" cx="1669.9676767678739" cy="536.4774059241915" fill="#f5f5f5"/>
<circle r="1.7463724861235896" cx="197.42118621025787" cy="159.82026326648497" fill="#f9f9f9"/>
<circle r="1.5747324801220697" cx="1491.9535138931828" cy="616.7705021909604" fill="#ffffff"/>
<circle r="1.5521973959471516" cx="589.6982767108186" cy="660.2706435039527" fill="#ffffff"/>
<circle r="1.6464251125758178" cx="181.56172728668295" cy="634.1323539416909" fill="#fdfdfd"/>
<circle r="1.561855711301333" cx="930.0952981424886" cy="22.409767163995653" fill="#ffffff"/>
<circle r="1.523923289003996" cx="774.1051437282438" cy="953.4584440002035" fill="#fefefe"/>
<circle r="1.3244517020695503" cx="24.46290257294514" cy="345.54830089915316" fill="#fafafa"/>
<circle r="1.4249654577649697" cx="728.3863693374434" cy="422.8420825323966" fill="#fbfbfb"/>
<circle r="1.3802581446622775" cx="609.2456610866282" cy="321.7322333821061" fill="#ffffff"/>
<circle r="1.510159940293496" cx="305.5803279739066" cy="997.4309525764194" fill="#ffffff"/>
<circle r="1.5573611764106705" cx="1265.3052179619106" cy="985.2544060535548" fill="#f9f9f9"/>
<circle r="1.5479864088538866" cx="742.8339896755447" cy="374.74134410304896" fill="#ffffff"/>
<circle r="1.699275709871143" cx="1660.7664416200685" cy="707.5810182712282" fill="#ffffff"/>
<circle r="1.4365289250879931" cx="1195.4907267041729" cy="876.199034140122" fill="#fafafa"/>
<circle r="1.544522363129903" cx="1905.2387896940115" cy="93.4338914334229" fill="#f9f9f9"/>
<circle r="1.4135440744852987" cx="933.0032146863309" cy="103.0606030828825" fill="#fdfdfd"/>
<circle r="1.4111305660383677" cx="997.2620579281156" cy="344.4097976943549" fill="#ffffff"/>
<circle r="1.5998560421006072" cx="1755.1998293525594" cy="327.2566576301537" fill="#f8f8f8"/>
<circle r="1.4732237777558699" cx="361.7501602490841" cy="298.76787318737644" fill="#fafafa"/>
<circle r="1.4800675942372643" cx="344.48866873000327" cy="222.44993452406928" fill="#ffffff"/>
<circle r="1.593098081132507" cx="1819.8020674018721" cy="796.7698316238807" fill="#f8f8f8"/>
<circle r="1.3893309394925601" cx="368.1610785088657" cy="353.67516165215795" fill="#fefefe"/>
<circle r="1.4461486281540519" cx="700.4345354996655" cy="499.9944106200447" fill="#ffffff"/>
<circle r="1.458409353570765" cx="267.64195345327505" cy="267.49240506523086" fill="#ffffff"/>
<circle r="1.5426407318850581" cx="673.9185205707507" cy="174.0747299932087" fill="#ffffff"/>
<circle r="1.4532063690778803" cx="234.9426565919361" cy="1015.1768790262716" fill="#fefefe"/>
<circle r="1.525389805699121" cx="827.941624443769" cy="99.82159509989923" fill="#fafafa"/>
<circle r="1.374262223136896" cx="1119.139836564138" cy="1051.9534586738994" fill="#ffffff"/>
<circle r="1.5136090045457269" cx="723.5556846062899" cy="384.20758132189366" fill="#fefefe"/>
<circle r="1.2957402008731536" cx="1587.7444372502778" cy="158.07388802384645" fill="#fafafa"/>
<circle r="1.3961482244512993" cx="974.2151643653701" cy="314.0989489800107" fill="#fcfcfc"/>
<circle r="1.5072628793878151" cx="1338.5582228753935" cy="613.213295080552" fill="#fbfbfb"/>
<circle r="1.5089279759174425" cx="1861.7127054553334" cy="940.0545921427337" fill="#fafafa"/>
<circle r="1.3688680983503079" cx="118.09091518665873" cy="837.7892722431351" fill="#ffffff"/>
<circle r="1.4036228661827597" cx="1448.235584731564" cy="1030.8371681910523" fill="#ffffff"/>
<circle r="1.5714096763650174" cx="498.0816187939031" cy="115.07173214007102" fill="#f5f5f5"/>
<circle r="1.3509337301482094" cx="1731.5191076325304" cy="956.3686931357761" fill="#fefefe"/>
<circle r="1.5170944686922314" cx="618.6929242696147" cy="994.4341569617494" fill="#ffffff"/>
<circle r="1.3849470316524923" cx="1086.1247308757038" cy="251.59329194892095" fill="#fefefe"/>
<circle r="1.2207473465479168" cx="1892.78457332957" cy="993.578296499298" fill="#ffffff"/>
<circle r="1.4359658082440618" cx="843.183760201522" cy="47.59177888472478" fill="#fbfbfb"/>
<circle r="1.6851438083799466" cx="957.3284690648554" cy="1054.7731697768509" fill="#ffffff"/>
<circle r="1.411580379583397" cx="773.0791430790302" cy="856.8237746393719" fill="#fafafa"/>
<circle r="1.5975109251276793" cx="1913.233699978805" cy="535.6504491828879" fill="#ffffff"/>
<circle r="1.5346646580784193" cx="711.6187110026472" cy="297.02528707065056" fill="#ffffff"/>
<circle r="1.482532418800326" cx="1041.1429537280583" cy="142.58805296985912" fill="#ffffff"/>
<circle r="1.5102221775966207" cx="16.88384974647974" cy="1049.940630481289" fill="#fafafa"/>
<circle r="1.3123355297084072" cx="323.6858820428683" cy="513.6621378734478" fill="#ffffff"/>
<circle r="1.5365295038537174" cx="25.786510906481865" cy="1040.325586783813" fill="#f8f8f8"/>
<circle r="1.3896254928022187" cx="1590.3683099973473" cy="386.5155113254549" fill="#fefefe"/>
<circle r="1.5407743909322917" cx="1263.5946365492484" cy="787.7797842038157" fill="#ffffff"/>
<circle r="1.5487730966094697" cx="649.4907095537977" cy="685.911151177719" fill="#f8f8f8"/>
<circle r="1.3879417239875225" cx="809.0001852230638" cy="316.8943866075454" fill="#fdfdfd"/>
<circle r="1.5139820758606304" cx="318.8326850421531" cy="326.55561761111176" fill="#ffffff"/>
<circle r="1.5891223673786432" cx="506.97969206018826" cy="989.7460669605588" fill="#fcfcfc"/>
<circle r="1.6225412185616108" cx="96.43225930461803" cy="449.09351709318895" fill="#ffffff"/>
<circle r="1.4530497884943343" cx="40.09894167812057" cy="811.7614170711287" fill="#f6f6f6"/>
<circle r="1.6290135994574935" cx="1715.3044266250074" cy="894.0625047165975" fill="#ffffff"/>
<circle r="1.5056593603191064" cx="567.2826724764651" cy="883.2964804091984" fill="#f6f6f6"/>
<circle r="1.333031145051914" cx="1898.5486176539375" cy="975.258848075459" fill="#fbfbfb"/>
<circle r="1.6258817233597973" cx="1132.162137687329" cy="323.4115815363666" fill="#ffffff"/>
<circle r="1.5154401825551533" cx="1764.162105900844" cy="664.7919342723444" fill="#fdfdfd"/>
<circle r="1.5736603685407495" cx="1854.214082352148" cy="472.9811705665525" fill="#f9f9f9"/>
<circle r="1.6294098233608472" cx="819.8227849995976" cy="194.87825714522182" fill="#fdfdfd"/>
<circle r="1.3569086841867692" cx="621.0976527960049" cy="583.5060603699644" fill="#ffffff"/>
<circle r="1.495580893741238" cx="1116.0129190476796" cy="582.766231420178" fill="#f9f9f9"/>
<circle r="1.4359551941195328" cx="1247.337138815246" cy="351.93445276472124" fill="#f9f9f9"/>
<circle r="1.5690531401531649" cx="1035.9467407461068" cy="926.9889888540961" fill="#fdfdfd"/>
<circle r="1.5150503977687413" cx="1901.4495953124797" cy="828.3735317552618" fill="#ffffff"/>
<circle r="1.422751289189925" cx="625.7058729619735" cy="334.56839083188316" fill="#ffffff"/>
<circle r="1.4158243292570767" cx="12.033307044586863" cy="717.3751851375646" fill="#f7f7f7"/>
<circle r="1.4707021278046093" cx="153.85696194615164" cy="376.73389274195847" fill="#fefefe"/>
<circle r="1.6261234859941738" cx="307.40613654694107" cy="869.6319439086426" fill="#ffffff"/>
<circle r="1.3858185126184976" cx="1021.0948026824962" cy="318.3883884843831" fill="#f8f8f8"/>
<circle r="1.6058701245333236" cx="1340.1465306866348" cy="929.7409797688199" fill="#ffffff"/>
<circle r="1.5827396405452476" cx="510.02430503415167" cy="38.52115315619956" fill="#fefefe"/>
<circle r="1.6294720646858234" cx="1804.9633966483464" cy="658.7803451721637" fill="#ffffff"/>
<circle r="1.5082558019540544" cx="11.31974774007567" cy="547.4701184098013" fill="#ffffff"/>
<circle r="1.6200280858630496" cx="1533.4115197256501" cy="457.1137171861908" fill="#ffffff"/>
<circle r="1.529224193767253" cx="1829.4004792132453" cy="927.6213492482225" fill="#ffffff"/>
<circle r="1.6475614391208677" cx="1742.9313334787066" cy="612.005989341665" fill="#ffffff"/>
<circle r="1.566016638159813" cx="1854.256177732636" cy="855.4720500796337" fill="#ffffff"/>
<circle r="1.420336178438114" cx="1213.3953295151152" cy="119.21358304506676" fill="#ffffff"/>
<circle r="1.6779408529427968" cx="1751.2254417593783" cy="619.9849306438456" fill="#ffffff"/>
<circle r="1.7391960480211757" cx="1519.785323105209" cy="391.332997970782" fill="#fcfcfc"/>
<circle r="1.403715197187106" cx="1157.8295105106235" cy="181.76741205657177" fill="#ffffff"/>
<circle r="1.5233761043854008" cx="2.7692120901703277" cy="464.89170461896543" fill="#ffffff"/>
<circle r="1.4270541492646593" cx="426.86122817005787" cy="297.4031172439362" fill="#fefefe"/>
<circle r="1.5329346314149888" cx="880.1950077095578" cy="443.54234172507466" fill="#ffffff"/>
<circle r="1.4257088042962138" cx="71.57692074284938" cy="949.1398272896766" fill="#fefefe"/>
<circle r="1.4947320245465863" cx="1374.1640080150235" cy="958.3819026197343" fill="#ffffff"/>
<circle r="1.4013036960042002" cx="703.0870617429038" cy="103.54545172143406" fill="#fbfbfb"/>
<circle r="1.4799525672551124" cx="106.6550992258712" cy="878.1373613950626" fill="#f5f5f5"/>
<circle r="1.434583346070463" cx="1452.3369852240903" cy="187.01684126719766" fill="#ffffff"/>
<circle r="1.5349155399809282" cx="632.1676025879251" cy="879.4128236676105" fill="#ffffff"/>
<circle r="1.494992537140107" cx="805.0234600931942" cy="693.1619559667764" fill="#f8f8f8"/>
<circle r="1.3056944843268898" cx="571.6783029386827" cy="618.7565046513481" fill="#fefefe"/>
<circle r="1.6219298678580012" cx="479.68719060667036" cy="696.4350572042654" fill="#f2f2f2"/>
<circle r="1.5745640669176713" cx="52.6297992419164" cy="362.41904291612497" fill="#ffffff"/>
<circle r="1.542120012047171" cx="571.6399247291135" cy="331.7367199677452" fill="#fdfdfd"/>
<circle r="1.6773991545491178" cx="927.6251766524416" cy="499.69301616642923" fill="#ffffff"/>
<circle r="1.5870562484732331" cx="511.9946692684032" cy="586.6612441009961" fill="#ffffff"/>
<circle r="1.5225765523597277" cx="672.7245019948733" cy="307.92526188519565" fill="#ffffff"/>
<circle r="1.504757248494994" cx="1695.3533768960951" cy="114.23009747178914" fill="#ffffff"/>
<circle r="1.552336416942046" cx="1389.2033545100226" cy="746.3945067638915" fill="#ffffff"/>
<circle r="1.3922080099322944" cx="448.9072173940873" cy="790.0092914635361" fill="#fdfdfd"/>
<circle r="1.5286824269737724" cx="1219.9256415263865" cy="875.7878924506425" fill="#fafafa"/>
<circle r="1.5151014724508567" cx="1801.6927051124926" cy="955.2225934269994" fill="#ffffff"/>
<circle r="1.4671133708001496" cx="357.40550827723166" cy="827.0338302622146" fill="#fcfcfc"/>
<circle r="1.502760606634247" cx="1780.9278881723378" cy="743.9924226213099" fill="#fcfcfc"/>
<circle r="1.4005126620359418" cx="1595.7644916430365" cy="754.2873442717223" fill="#ffffff"/>
<circle r="1.4607594170345832" cx="775.589080028896" cy="307.0754374183062" fill="#ffffff"/>
<circle r="1.5127987488093002" cx="1392.4826950762572" cy="383.4308853443353" fill="#ffffff"/>
<circle r="1.4184799164641804" cx="933.2311752602874" cy="760.0155032955115" fill="#fefefe"/>
<circle r="1.7737223720953703" cx="625.3301008029271" cy="48.1133308557036" fill="#fbfbfb"/>
<circle r="1.547434857947695" cx="234.43987811646167" cy="662.3291389413818" fill="#f5f5f5"/>
<circle r="1.6996081783797274" cx="968.5475681130608" cy="177.1845613168824" fill="#f3f3f3"/>
<circle r="1.489719156617307" cx="1398.1866555704855" cy="585.8663478430651" fill="#fefefe"/>
<circle r="1.3669338723095097" cx="1759.49838552579" cy="215.4721976881505" fill="#ffffff"/>
<circle r="1.3633753242153404" cx="1483.518016972433" cy="612.0719290401798" fill="#fbfbfb"/>
<circle r="1.6282730511184695" cx="1247.726815210747" cy="685.4545526259874" fill="#ffffff"/>
<circle r="1.486263077348672" cx="1117.8719604410762" cy="928.0711489815301" fill="#ffffff"/>
<circle r="1.3039904922289183" cx="886.6680799672814" cy="634.5853428165681" fill="#f8f8f8"/>
<circle r="1.5908532053644182" cx="1916.8358015835634" cy="837.9761084668436" fill="#ffffff"/>
<circle r="1.4587406531925808" cx="1105.4624367817303" cy="581.5381617103144" fill="#f9f9f9"/>
<circle r="1.3219140251169519" cx="837.1490992471937" cy="363.33908008686257" fill="#ffffff"/>
<circle r="1.5850432248320974" cx="489.67067842613125" cy="507.8008703507647" fill="#ffffff"/>
<circle r="1.5327391485777506" cx="1268.2818271392946" cy="296.1009217993817" fill="#ffffff"/>
<circle r="1.4684842938738933" cx="1031.2878989460432" cy="436.9854773602367" fill="#ffffff"/>
<circle r="1.6339271551388372" cx="236.28768912123212" cy="1043.1741660396704" fill="#fefefe"/>
<circle r="1.493576587752054" cx="1647.1110926805493" cy="624.8065288240365" fill="#ffffff"/>
<circle r="1.4320647398415614" cx="875.3973529715885" cy="1053.567652421003" fill="#f9f9f9"/>
<circle r="1.557909601837195" cx="380.65696234434137" cy="819.1413771549601" fill="#f7f7f7"/>
<circle r="1.5574881002401335" cx="637.2019812636839" cy="696.3762583783471" fill="#ffffff"/>
<circle r="1.5541202608289122" cx="438.29117850689386" cy="23.278726655132527" fill="#fbfbfb"/>
<circle r="1.5421869766094347" cx="437.21233666511404" cy="738.8604538623301" fill="#f7f7f7"/>
<circle r="1.3262864705146498" cx="483.9234701773586" cy="30.078128163203097" fill="#fbfbfb"/>
<circle r="1.5130272279704486" cx="335.3644415279501" cy="42.95097769151491" fill="#fefefe"/>
<circle r="1.5210334786922135" cx="1280.8439909419942" cy="132.00845573747998" fill="#f6f6f6"/>
<circle r="1.4448384577439295" cx="1138.8746074977494" cy="283.3269440870658" fill="#ffffff"/>
<circle r="1.6610779911012907" cx="1279.5709524628483" cy="662.7724984265859" fill="#f5f5f5"/>
<circle r="1.5393754813022298" cx="328.23072630080327" cy="224.96708969736528" fill="#ffffff"/>
<circle r="1.439158150183142" cx="1110.2787107565566" cy="802.2986459567774" fill="#ffffff"/>
<circle r="1.3642976804111482" cx="343.94090558513756" cy="1042.4958028517408" fill="#fefefe"/>
<circle r="1.4059028886243752" cx="1405.442962358525" cy="18.10395989799838" fill="#ffffff"/>
<circle r="1.48052249451184" cx="1012.2901799200113" cy="642.218162190015" fill="#ffffff"/>
<circle r="1.458209726150527" cx="960.4162241868736" cy="474.179812135324" fill="#ffffff"/>
<circle r="1.4336659568898529" cx="750.7361956878963" cy="305.0816257221034" fill="#ffffff"/>
<circle r="1.4497607736078304" cx="622.9841071844753" cy="537.8111151572278" fill="#ffffff"/>
<circle r="1.5034124940408349" cx="1359.8505549023475" cy="895.476840587376" fill="#fdfdfd"/>
<circle r="1.515276808142945" cx="422.8806402022291" cy="712.4696151651023" fill="#fafafa"/>
<circle r="1.5430807679997662" cx="597.0981608120916" cy="793.5684616073397" fill="#fefefe"/>
<circle r="1.5867029889421442" cx="361.91144091683043" cy="650.5530581940894" fill="#fbfbfb"/>
<circle r="1.5286538912281802" cx="294.5743415818039" cy="590.2178529988538" fill="#ffffff"/>
<circle r="1.516567714387074" cx="1665.5452437910988" cy="855.2546480465671" fill="#fefefe"/>
<circle r="1.5865506284956659" cx="1006.3961382299327" cy="640.407618757924" fill="#ffffff"/>
<circle r="1.4670858135450398" cx="691.7346074434336" cy="949.29390486664" fill="#f6f6f6"/>
<circle r="1.394662313961206" cx="9.77026551712072" cy="396.0652343818893" fill="#fefefe"/>
<circle r="1.4771740838579113" cx="628.3223933194531" cy="14.881053642476267" fill="#ffffff"/>
<circle r="1.6035022005873343" cx="499.57759483205706" cy="972.1991892469489" fill="#ffffff"/>
<circle r="1.4688811482244084" cx="754.5217849934556" cy="708.9781553123673" fill="#ffffff"/>
<circle r="1.620451072020562" cx="1185.2758926056474" cy="907.0946780899402" fill="#ffffff"/>
<circle r="1.4637644885227903" cx="1150.744665311189" cy="724.7779818680054" fill="#fefefe"/>
<circle r="1.5186522984972772" cx="590.2690829594665" cy="281.8022105419973" fill="#f3f3f3"/>
<circle r="1.4981858410162046" cx="1142.008048022633" cy="427.61296460515314" fill="#ffffff"/>
<circle r="1.5885575831141563" cx="306.5045011445784" cy="216.4147064152628" fill="#fdfdfd"/>
<circle r="1.588978905235993" cx="1833.595158970749" cy="509.6212510789475" fill="#fefefe"/>
<circle r="1.4476381775400071" cx="703.4584318899972" cy="784.3182435401948" fill="#fefefe"/>
<circle r="1.5497092436698179" cx="536.0954457777755" cy="61.32825775580847" fill="#ffffff"/>
<circle r="1.4541910978336299" cx="1005.9534133050106" cy="214.2159598891811" fill="#ffffff"/>
<circle r="1.3815030586277877" cx="196.9114988752043" cy="869.1862030906989" fill="#ffffff"/>
<circle r="1.5792721134968801" cx="1695.1086449919603" cy="365.3742870777741" fill="#ffffff"/>
<circle r="1.488382312789939" cx="339.53933441365933" cy="150.84299263430725" fill="#fdfdfd"/>
<circle r="1.4017711186400033" cx="1486.7038494486042" cy="409.64361321663586" fill="#f9f9f9"/>
<circle r="1.3736511682665395" cx="1241.3810197845962" cy="69.12643108904872" fill="#ffffff"/>
<circle r="1.474236329086882" cx="483.25919158451836" cy="555.1580988288451" fill="#fdfdfd"/>
<circle r="1.4400963473614903" cx="1495.3183675228959" cy="654.446398504008" fill="#ffffff"/>
<circle r="1.6596054058523848" cx="1154.970951823288" cy="431.5414011277012" fill="#f6f6f6"/>
<circle r="1.4839180720070977" cx="972.3151297712313" cy="944.7291398784183" fill="#ffffff"/>
<circle r="1.4240858434264292" cx="721.6676349183572" cy="791.6812904754344" fill="#ffffff"/>
<circle r="1.5678838013621224" cx="1307.5408746468647" cy="969.7739556033191" fill="#fdfdfd"/>
<circle r="1.7726995311914036" cx="1701.337860797549" cy="133.0975434603295" fill="#fefefe"/>
<circle r="1.3372978495451913" cx="1854.2295867241578" cy="686.5476083480028" fill="#ffffff"/>
<circle r="1.569044359057187" cx="320.1440383939647" cy="648.4640031288849" fill="#fbfbfb"/>
<circle r="1.576995712696566" cx="1577.2652736194523" cy="599.5931517574008" fill="#fdfdfd"/>
<circle r="1.63486786972955" cx="456.5436286411082" cy="206.5848919765628" fill="#fcfcfc"/>
<circle r="1.399784761280628" cx="1662.1114913864556" cy="743.3565534761917" fill="#fafafa"/>
<circle r="1.388235070029518" cx="1616.5751746391172" cy="378.9889568591826" fill="#ffffff"/>
<circle r="1.5438337124925658" cx="140.34624165104128" cy="941.9018007858966" fill="#ffffff"/>
<circle r="1.6555393792597708" cx="950.5416238559973" cy="67.05255698695203" fill="#ffffff"/>
<circle r="1.4404741691080867" cx="939.4074973544231" cy="734.0236199152927" fill="#fefefe"/>
<circle r="1.4977688339308073" cx="1392.2563364105474" cy="1017.184006584138" fill="#ffffff"/>
<circle r="1.5170909111776183" cx="1591.8539215940257" cy="254.2444715763087" fill="#fcfcfc"/>
<circle r="1.6136057805263992" cx="152.36028551979012" cy="136.17965481370015" fill="#f7f7f7"/>
<circle r="1.5641586659121982" cx="431.5523035905281" cy="548.2682946996101" fill="#ffffff"/>
<circle r="1.6000316342912533" cx="422.9992122903003" cy="828.948588672225" fill="#fcfcfc"/>
<circle r="1.5445272634468745" cx="955.4379446421333" cy="770.5810534026317" fill="#ffffff"/>
<circle r="1.4853966999803527" cx="1867.8719606380907" cy="331.24662764631313" fill="#fafafa"/>
<circle r="1.3323638026568552" cx="885.0979443680616" cy="472.471404239615" fill="#fbfbfb"/>
<circle r="1.5283180084314516" cx="638.2953341211802" cy="365.6020194838549" fill="#ffffff"/>
<circle r="1.3743234321978477" cx="1747.2555894973748" cy="111.39267342520213" fill="#f9f9f9"/>
<circle r="1.546600650212335" cx="1450.6432964880987" cy="427.4485170102371" fill="#fafafa"/>
<circle r="1.5186051705935553" cx="663.1129258319227" cy="649.5544542999758" fill="#ffffff"/>
<circle r="1.4670061019973322" cx="1871.1799213629415" cy="221.41073249800908" fill="#ffffff"/>
<circle r="1.441561973088918" cx="566.2241909224548" cy="1006.4262864423455" fill="#ffffff"/>
<circle r="1.5151742388659273" cx="109.81567282458684" cy="63.023170207303096" fill="#fbfbfb"/>
<circle r="1.637712039600654" cx="390.8999045183853" cy="668.5686908045724" fill="#ffffff"/>
<circle r="1.4177460655760927" cx="558.0274356469761" cy="1075.0452696656653" fill="#fdfdfd"/>
<circle r="1.3748132387382017" cx="1387.7573583919232" cy="177.55654511387485" fill="#ffffff"/>
<circle r="1.5017389689140606" cx="1710.2310468753428" cy="304.2888246272134" fill="#ffffff"/>
<circle r="1.3683008202316405" cx="623.8938705824773" cy="799.1926335224189" fill="#ffffff"/>
<circle r="1.70474116721949" cx="941.3386833510938" cy="742.7990614350964" fill="#ffffff"/>
<circle r="1.5759766806254436" cx="193.9342226036733" cy="68.78247010255377" fill="#fcfcfc"/>
<circle r="1.5404739840081074" cx="1604.2605530061392" cy="660.1181110787044" fill="#fdfdfd"/>
<circle r="1.569666699791136" cx="628.2401559557381" cy="795.7082459213038" fill="#fdfdfd"/>
<circle r="1.4464166911265355" cx="1891.854883781085" cy="549.4789798884921" fill="#fbfbfb"/>
<circle r="1.6520802625416917" cx="1607.9999229410778" cy="322.75688061529763" fill="#ffffff"/>
<circle r="1.511073712671051" cx="791.6433703296738" cy="871.8964981945086" fill="#fefefe"/>
<circle r="1.3318734446409" cx="1676.4642538639378" cy="599.9862846444123" fill="#fefefe"/>
<circle r="1.4758497570319424" cx="1061.0832166364073" cy="902.8325879057766" fill="#ffffff"/>
<circle r="1.483387192037783" cx="649.7133132338244" cy="878.5279222253962" fill="#ffffff"/>
<circle r="1.473310607513555" cx="1277.795537027047" cy="849.6370238120167" fill="#ffffff"/>
<circle r="1.396938170927928" cx="1030.6385115597916" cy="35.71568430507441" fill="#ffffff"/>
<circle r="1.3436235800581326" cx="603.5546891342785" cy="389.0186389238163" fill="#fdfdfd"/>
<circle r="1.342174411714153" cx="1144.5995473655335" cy="360.3339804604488" fill="#fafafa"/>
<circle r="1.6160388648035224" cx="1882.9051310704722" cy="961.6978315904882" fill="#fcfcfc"/>
<circle r="1.42822668393914" cx="1214.717048510313" cy="846.779254453041" fill="#f7f7f7"/>
<circle r="1.5162837390021382" cx="64.80600753989286" cy="322.75719416239815" fill="#ffffff"/>
<circle r="1.5816493144967505" cx="1528.4211488802255" cy="1013.2075029978123" fill="#ffffff"/>
<circle r="1.3898869199189225" cx="1896.557961358661" cy="673.7624177046207" fill="#ffffff"/>
<circle r="1.607711390857825" cx="1467.1464755493278" cy="458.6664756731317" fill="#f5f5f5"/>
<circle r="1.6348904597327145" cx="1555.7558951953717" cy="859.622655748156" fill="#fefefe"/>
<circle r="1.4009095448540483" cx="246.28161993333032" cy="460.92969722830145" fill="#fafafa"/>
<circle r="1.5482181905166543" cx="737.5411056431499" cy="65.30610631516193" fill="#ffffff"/>
<circle r="1.6925767052555982" cx="708.8884059471113" cy="538.2159814073052" fill="#fcfcfc"/>
<circle r="1.5500008732878936" cx="273.13038475812004" cy="512.5491495341856" fill="#f9f9f9"/>
<circle r="1.5362772745061404" cx="953.8174106366272" cy="990.710098466268" fill="#fdfdfd"/>
<circle r="1.4090689314898706" cx="247.6455633507586" cy="49.572703251650566" fill="#ffffff"/>
<circle r="1.3906761697486132" cx="42.67433355275614" cy="530.851153267445" fill="#fbfbfb"/>
<circle r="1.4304604528091214" cx="295.97773136384103" cy="43.34682051772428" fill="#fafafa"/>
<circle r="1.3407543356941396" cx="360.26264355418016" cy="834.1949012243731" fill="#ffffff"/>
<circle r="1.4666484695936701" cx="590.2833192420819" cy="755.5344404325435" fill="#fefefe"/>
<circle r="1.5856230661383193" cx="1204.4947462445357" cy="515.7714570924473" fill="#ffffff"/>
<circle r="1.5140819238009688" cx="810.6567934299993" cy="291.6142722650472" fill="#ffffff"/>
<circle r="1.5891981944355598" cx="1773.695450566091" cy="502.0363274209742" fill="#ffffff"/>
<circle r="1.4968878941650674" cx="1744.674815389293" cy="1023.750495261282" fill="#fafafa"/>
<circle r="1.4441131517195545" cx="1720.2605023084536" cy="278.44862506349006" fill="#ffffff"/>
<circle r="1.591775706663007" cx="508.662214652901" cy="418.2785632945753" fill="#ffffff"/>
<circle r="1.458475843353015" cx="1691.43974252138" cy="1022.7020390796024" fill="#fcfcfc"/>
<circle r="1.5023786778280284" cx="321.9224365053057" cy="756.925048590323" fill="#fafafa"/>
<circle r="1.559657629377314" cx="1540.8053613108596" cy="250.4134539235072" fill="#ffffff"/>
<circle r="1.5257464272194678" cx="1333.9360650518415" cy="989.5139804067811" fill="#ffffff"/>
<circle r="1.5387628879790565" cx="1531.584349293733" cy="764.3101768348519" fill="#fdfdfd"/>
<circle r="1.5100790587358197" cx="423.3363767730696" cy="1075.6081731575384" fill="#f9f9f9"/>
<circle r="1.4543704685366567" cx="26.50346773876919" cy="86.23558338571429" fill="#f7f7f7"/>
<circle r="1.4450778782699072" cx="1348.7797007024146" cy="441.9643182658276" fill="#ffffff"/>
<circle r="1.5987078254155" cx="962.8046703753741" cy="617.9019181165141" fill="#ffffff"/>
<circle r="1.354613612762508" cx="101.08725629082699" cy="194.74146519302832" fill="#f6f6f6"/>
<circle r="1.559964284346147" cx="183.35026966747463" cy="498.0170439033865" fill="#ffffff"/>
<circle r="1.4918499601678499" cx="782.2627721545105" cy="638.7580104563727" fill="#ffffff"/>
<circle r="1.5739468420523242" cx="632.5243169934964" cy="925.8313194348314" fill="#f9f9f9"/>
<circle r="1.6527940596703803" cx="204.87244795667942" cy="230.14051669004132" fill="#fbfbfb"/>
<circle r="1.669573339216553" cx="1094.7505227789948" cy="482.4167294184109" fill="#ffffff"/>
<circle r="1.3996629725326626" cx="114.61106330343007" cy="68.15078201277412" fill="#fefefe"/>
<circle r="1.4007519417340109" cx="250.79606005900126" cy="436.9155504356237" fill="#fefefe"/>
<circle r="1.4737533470191762" cx="1839.6550727092094" cy="763.4172660201381" fill="#fdfdfd"/>
<circle r="1.5242186105707682" cx="159.1178098102052" cy="180.20432084555338" fill="#ffffff"/>
<circle r="1.5353398616722271" cx="701.1479249590254" cy="390.10570014138386" fill="#ffffff"/>
<circle r="1.6813129451705229" cx="5.677620256091629" cy="1073.7970359203327" fill="#fefefe"/>
<circle r="1.5558133228027922" cx="103.3229227579374" cy="926.9564039256583" fill="#ffffff"/>
<circle r="1.4359811942490766" cx="1660.2570772443291" cy="566.8110262527666" fill="#ffffff"/>
<circle r="1.6206694990004573" cx="189.70831018784872" cy="219.1031250477569" fill="#ffffff"/>
<circle r="1.5904904946063982" cx="1359.575899594939" cy="122.3752655765298" fill="#f8f8f8"/>
<circle r="1.5535352197092507" cx="1736.8015711961564" cy="736.273386886483" fill="#ffffff"/>
<circle r="1.5636849754615418" cx="250.6574197545425" cy="248.91247334492726" fill="#fdfdfd"/>
<circle r="1.4925010389473183" cx="378.3388992315389" cy="618.1160813805602" fill="#f6f6f6"/>
<circle r="1.5340421545263676" cx="586.7208854206473" cy="856.1153363389694" fill="#ffffff"/>
<circle r="1.622350321385273" cx="496.2853438172857" cy="705.656586250544" fill="#fdfdfd"/>
<circle r="1.5047981111138558" cx="1344.9411173664994" cy="365.783270317121" fill="#fdfdfd"/>
<circle r="1.5683587166237236" cx="505.8837765556726" cy="517.068968854177" fill="#ffffff"/>
<circle r="1.4293648172634885" cx="1447.046273789992" cy="25.594897732067132" fill="#ffffff"/>
<circle r="1.6595425969169655" cx="967.1129122538487" cy="907.1589205743446" fill="#ffffff"/>
<circle r="1.5017390335903718" cx="1600.4668443399478" cy="976.2465981348948" fill="#f7f7f7"/>
<circle r="1.5997393915029698" cx="276.5083197431867" cy="1067.6060058676355" fill="#fcfcfc"/>
<circle r="1.4322974716786327" cx="1198.8875595716415" cy="7.933680831155545" fill="#fafafa"/>
<circle r="1.6229293495607595" cx="1687.3953679309896" cy="763.8951297737832" fill="#fbfbfb"/>
<circle r="1.4630456039551225" cx="1849.5948765093071" cy="364.94052720967557" fill="#ffffff"/>
<circle r="1.379959812079774" cx="187.76756651879617" cy="291.3697768975888" fill="#ffffff"/>
<circle r="1.6721589669354209" cx="237.25886519714422" cy="436.5416711840659" fill="#ffffff"/>
<circle r="1.3450369983404302" cx="866.9757838473473" cy="344.937697955617" fill="#ffffff"/>
<circle r="1.2101493333238733" cx="537.0324160712497" cy="581.1032673294355" fill="#ffffff"/>
<circle r="1.287939361446632" cx="1036.3919829751283" cy="983.2396877294786" fill="#fbfbfb"/>
<circle r="1.6213105500466858" cx="348.3853154774795" cy="848.6558331576797" fill="#ffffff"/>
<circle r="1.5129455964290506" cx="622.8488959047488" cy="552.681494550055" fill="#fbfbfb"/>
<circle r="1.508445508373791" cx="232.4547330585815" cy="46.03987213468888" fill="#ffffff"/>
<circle r="1.360340345341666" cx="726.2124047377148" cy="137.87391448121366" fill="#ffffff"/>
<circle r="1.6061517818125748" cx="188.45806067916925" cy="667.3285685059325" fill="#ffffff"/>
<circle r="1.5071115182527168" cx="354.3894164603768" cy="625.0707314928699" fill="#ffffff"/>
<circle r="1.4560089346866316" cx="1137.4961330494095" cy="208.742460682397" fill="#ffffff"/>
<circle r="1.4979793889821214" cx="615.0134158568877" cy="942.02662071298" fill="#f9f9f9"/>
  <g id="twinkle" fill="#00000" filter="url(#blur)">
    <animateMotion dur="120s" repeatCount="indefinite" path="M0,0 L1920,0 z" />
    <circle r="38.904054262235654" cx="1730.724817123109" cy="346.2137351134086"/>
<circle r="31.032042649300827" cx="617.4952756497996" cy="392.79915047337977"/>
<circle r="49.75079167194859" cx="-1552.800052210328" cy="230.63508949558886"/>
<circle r="29.921854493540884" cx="-981.4651121035205" cy="85.9388309947736"/>
<circle r="36.23831130236693" cx="-948.5901017703479" cy="973.529889492477"/>
<circle r="51.652470588058065" cx="578.9581788453715" cy="389.2776745968541"/>
<circle r="44.99268695898702" cx="-986.8248692058485" cy="457.25789398998165"/>
<circle r="31.27936666720923" cx="-635.906643383287" cy="366.801500572237"/>
<circle r="25.12599608971833" cx="-1888.8515723162252" cy="497.93117304685154"/>
<circle r="51.74016942668082" cx="288.0999514674363" cy="287.0621599858045"/>
<circle r="31.233767530872633" cx="787.3283431275318" cy="329.3465807374705"/>
<circle r="37.66553195229384" cx="-1481.1400832469724" cy="599.694736359141"/>
<circle r="42.791371890409295" cx="180.97626076091228" cy="1071.419529331744"/>
<circle r="46.06104778774289" cx="1637.7511554594053" cy="389.38792792042966"/>
<circle r="32.05814941790426" cx="-964.3229232489574" cy="655.9510669882557"/>
<circle r="26.433963054012253" cx="-952.8754839881968" cy="804.9925257824822"/>
<circle r="36.836072054249136" cx="-1173.579840868707" cy="966.4418637575636"/>
<circle r="44.32092975037624" cx="1020.2770749569213" cy="629.0552260378095"/>
<circle r="44.01336587985536" cx="-286.1488986548293" cy="185.94225301380658"/>
<circle r="46.93579129677684" cx="340.9617174558698" cy="951.7299451589114"/>
<circle r="37.19901946397288" cx="776.2411175436778" cy="54.47591919936051"/>
<circle r="38.57676873848533" cx="-621.9593907183375" cy="638.0026415449848"/>
<circle r="29.383008791130194" cx="-539.3873237070275" cy="470.32079333810003"/>
<circle r="26.699258279716815" cx="238.77336425785325" cy="184.19362739227142"/>
<circle r="49.633461414926614" cx="732.9839352133881" cy="495.5679421674889"/>
<circle r="32.26991720610187" cx="-1677.3846302003171" cy="472.10996596574773"/>
<circle r="39.9574583321827" cx="-1861.4862675715917" cy="447.6781214835893"/>
<circle r="41.41152172944007" cx="1487.9805489868731" cy="500.52514665560494"/>
<circle r="35.223792720289325" cx="1388.351124749815" cy="1065.8397757373748"/>
<circle r="37.94885513422053" cx="-1305.0151308089012" cy="537.2516000719963"/>
<circle r="34.76312366800398" cx="52.233181453502766" cy="490.7088409533853"/>
<circle r="22.180952292744273" cx="813.1613967678059" cy="1031.7630838263206"/>
  </g>
</svg>
