
<svg xmlns="http://www.w3.org/2000/svg" width="1920" height="1080" viewBox="0 0 1920 1080">
  <circle r="1.426749024314139" cx="1335.4972290101814" cy="961.5658064109573" fill="#ffffff"/>
<circle r="1.2698833821095905" cx="879.5592247696177" cy="900.2510491715208" fill="#f8f8f8"/>
<circle r="1.482559650021556" cx="1625.3222372373316" cy="831.2672042254001" fill="#f7f7f7"/>
<circle r="1.6091374423680034" cx="337.46552694472115" cy="629.8041773925086" fill="#fefefe"/>
<circle r="1.5645338864760165" cx="1915.0768030233583" cy="555.6229708602584" fill="#fcfcfc"/>
<circle r="1.562201846897006" cx="1256.7719428937878" cy="937.3445991479872" fill="#f6f6f6"/>
<circle r="1.7199113530439096" cx="1151.9324472534317" cy="725.1760494516358" fill="#fbfbfb"/>
<circle r="1.6567447602777332" cx="790.7511718026158" cy="786.7405767399383" fill="#fbfbfb"/>
<circle r="1.3856761787093657" cx="845.4965253040409" cy="624.0802133969895" fill="#fbfbfb"/>
<circle r="1.60336266617902" cx="859.503169671177" cy="84.63528393977676" fill="#fbfbfb"/>
<circle r="1.449246744544207" cx="452.43801085532937" cy="48.28224324576521" fill="#ffffff"/>
<circle r="1.5993767859196444" cx="15.320825430380864" cy="447.05830713918857" fill="#fdfdfd"/>
<circle r="1.5316567714053428" cx="1827.2739749856569" cy="384.65297138206375" fill="#fdfdfd"/>
<circle r="1.4787014304454331" cx="189.0596255043883" cy="366.64235630531033" fill="#f5f5f5"/>
<circle r="1.6692817062500702" cx="412.1734416324164" cy="40.87229847384533" fill="#ffffff"/>
<circle r="1.6893062595541388" cx="1407.108854297273" cy="331.0354422861043" fill="#fcfcfc"/>
<circle r="1.6185053001266374" cx="1469.4345288765705" cy="942.5141450814963" fill="#f5f5f5"/>
<circle r="1.4586538706693932" cx="1103.0524345526767" cy="255.9108970661945" fill="#ffffff"/>
<circle r="1.4081957779392802" cx="801.6718469767728" cy="755.2077301037306" fill="#fcfcfc"/>
<circle r="1.5054741387373278" cx="314.3284112479932" cy="247.1614266821797" fill="#fbfbfb"/>
<circle r="1.4759000974844416" cx="1572.2587693827513" cy="608.945536077895" fill="#ffffff"/>
<circle r="1.4331005376484725" cx="646.9857500670598" cy="452.2360674163727" fill="#fdfdfd"/>
<circle r="1.5938883592706559" cx="1739.8499061636055" cy="885.6879549176635" fill="#ffffff"/>
<circle r="1.5684266429471796" cx="1383.1665470150463" cy="473.91949143677334" fill="#f7f7f7"/>
<circle r="1.4066073678973368" cx="273.53109558621884" cy="923.1618967197095" fill="#ffffff"/>
<circle r="1.488830658778526" cx="195.53342765217906" cy="713.3179763570827" fill="#f8f8f8"/>
<circle r="1.4148199763121416" cx="6.26742456449918" cy="1063.0909915753066" fill="#ffffff"/>
<circle r="1.458091171889124" cx="348.7957243756291" cy="768.2582727494912" fill="#f6f6f6"/>
<circle r="1.698126048444025" cx="1533.35812689374" cy="549.8846179629298" fill="#ffffff"/>
<circle r="1.2929640232852866" cx="5.649328984525752" cy="249.433803940338" fill="#ffffff"/>
<circle r="1.5110964833610787" cx="919.1897679969879" cy="202.4726619855287" fill="#f9f9f9"/>
<circle r="1.3306732743527776" cx="1903.123136704723" cy="681.9417928342309" fill="#ffffff"/>
<circle r="1.5153376715149487" cx="1258.2922115723832" cy="400.3439207385291" fill="#ffffff"/>
<circle r="1.5488057331799985" cx="588.539891301631" cy="334.2970017692523" fill="#fbfbfb"/>
<circle r="1.4682495956191988" cx="175.3215694424685" cy="498.464398135016" fill="#ffffff"/>
<circle r="1.6123657525286246" cx="1037.9901489900433" cy="263.5362004419758" fill="#fdfdfd"/>
<circle r="1.4699079769016183" cx="275.4118110602482" cy="130.30342780434407" fill="#fdfdfd"/>
<circle r="1.6745248635446879" cx="737.5744235985158" cy="1009.1899455727976" fill="#f5f5f5"/>
<circle r="1.6731025329097438" cx="57.418766635275986" cy="393.8747324578125" fill="#ffffff"/>
<circle r="1.3609999960565082" cx="124.94818056595463" cy="41.01284044538714" fill="#fcfcfc"/>
<circle r="1.5775038656320162" cx="646.5745457886683" cy="651.4718228879511" fill="#fefefe"/>
<circle r="1.4692836943468537" cx="1612.6325891610647" cy="713.8434271523321" fill="#f9f9f9"/>
<circle r="1.4689708318123662" cx="300.81011849732374" cy="206.72389252255883" fill="#fdfdfd"/>
<circle r="1.532521510687766" cx="337.96661488269785" cy="804.1746321488515" fill="#ffffff"/>
<circle r="1.353212120497297" cx="696.5272014016539" cy="972.8567838988297" fill="#f6f6f6"/>
<circle r="1.5700073736442595" cx="228.5079845387778" cy="672.9485773441896" fill="#ffffff"/>
<circle r="1.4169201004482819" cx="613.1256998689272" cy="1013.815029183686" fill="#ffffff"/>
<circle r="1.3966044693010007" cx="622.2908908145716" cy="779.6441746895276" fill="#f7f7f7"/>
<circle r="1.483714448234284" cx="1700.2246249036584" cy="337.2436027707018" fill="#fdfdfd"/>
<circle r="1.5367062922170116" cx="1806.1850521264723" cy="980.6731928433511" fill="#ffffff"/>
<circle r="1.6555887626841126" cx="45.224982769434234" cy="576.8935654168115" fill="#fbfbfb"/>
<circle r="1.5632022797803156" cx="120.58643259714941" cy="756.5840356297099" fill="#fbfbfb"/>
<circle r="1.4388540339914826" cx="1397.3474708438991" cy="254.07228273461354" fill="#fafafa"/>
<circle r="1.5860754220247373" cx="865.0579166235188" cy="793.0488974264035" fill="#fcfcfc"/>
<circle r="1.5691033050454826" cx="1780.637938786526" cy="958.8052073713384" fill="#ffffff"/>
<circle r="1.5370426291141999" cx="1408.8515644413148" cy="145.30012726133987" fill="#fefefe"/>
<circle r="1.5688609451159041" cx="25.931230157378025" cy="355.01411887426616" fill="#fefefe"/>
<circle r="1.2975329052690903" cx="1236.5213732000486" cy="108.8529495100376" fill="#f9f9f9"/>
<circle r="1.689186047773619" cx="1454.45776907377" cy="24.812962499565685" fill="#f9f9f9"/>
<circle r="1.4000605349269593" cx="1235.6603194887548" cy="149.4216497167137" fill="#ffffff"/>
<circle r="1.5786522955015543" cx="1161.2729708147076" cy="997.67548506264" fill="#ffffff"/>
<circle r="1.5663881439121057" cx="145.4931408951535" cy="748.7872110652733" fill="#fcfcfc"/>
<circle r="1.3063915081546909" cx="658.6251782050658" cy="231.2428110295772" fill="#fefefe"/>
<circle r="1.4332726115718142" cx="1111.5679291754348" cy="604.383822460312" fill="#f8f8f8"/>
<circle r="1.5505517511300306" cx="1397.6686782959675" cy="51.974490052348784" fill="#ffffff"/>
<circle r="1.3535404007015335" cx="1770.4886980470994" cy="310.8425909377685" fill="#ffffff"/>
<circle r="1.4861135279735578" cx="820.6201963843752" cy="98.38103188643672" fill="#ffffff"/>
<circle r="1.3817591663826292" cx="1340.5848217668408" cy="315.17531704500203" fill="#fefefe"/>
<circle r="1.3938082164141585" cx="1079.226735905733" cy="1068.364157196307" fill="#fefefe"/>
<circle r="1.4334815914892505" cx="667.1946823966674" cy="582.1434271951928" fill="#ffffff"/>
<circle r="1.4001009980800152" cx="482.8947099661494" cy="360.8529191241354" fill="#ffffff"/>
<circle r="1.5908686910140273" cx="1753.911932458753" cy="585.9142367144503" fill="#ffffff"/>
<circle r="1.4595509643770403" cx="1608.8813535373915" cy="456.36551935820455" fill="#fcfcfc"/>
<circle r="1.501905167585926" cx="567.5495220169394" cy="521.3760343946473" fill="#fbfbfb"/>
<circle r="1.4522702865567432" cx="1875.7565940145748" cy="348.811683664067" fill="#ffffff"/>
<circle r="1.5289246286207325" cx="1031.6665017609434" cy="801.2276442662273" fill="#ffffff"/>
<circle r="1.4685473033423504" cx="1401.3456026525032" cy="3.2946144077117445" fill="#ffffff"/>
<circle r="1.4443029493432242" cx="1098.858502474483" cy="1079.8502703942781" fill="#ffffff"/>
<circle r="1.5332215671130742" cx="1352.3016912333965" cy="488.8475545500988" fill="#fdfdfd"/>
<circle r="1.5911743943184071" cx="344.97013881083296" cy="231.95694888465914" fill="#ffffff"/>
<circle r="1.5855855400414849" cx="1780.1725026568658" cy="866.2867071796927" fill="#ffffff"/>
<circle r="1.6183340875899985" cx="657.7129468528523" cy="524.171187594682" fill="#ffffff"/>
<circle r="1.5055529317165628" cx="841.9826275042827" cy="1071.1226923235438" fill="#ffffff"/>
<circle r="1.4327698870917644" cx="1598.5536041219018" cy="19.84438438225521" fill="#ffffff"/>
<circle r="1.4070535762047436" cx="716.9772260188653" cy="434.7911523384002" fill="#ffffff"/>
<circle r="1.5369176102861928" cx="1594.0571489005247" cy="782.4790749985401" fill="#fdfdfd"/>
<circle r="1.4491822195373532" cx="1554.387059012511" cy="124.79456117407969" fill="#fdfdfd"/>
<circle r="1.5199679375815627" cx="1457.3156591656543" cy="18.301495549187514" fill="#ffffff"/>
<circle r="1.5148296857787336" cx="155.7187702787759" cy="183.92805243209082" fill="#fcfcfc"/>
<circle r="1.5079135388443625" cx="869.541026702524" cy="1079.5491996898631" fill="#ffffff"/>
<circle r="1.5808399942546358" cx="854.2886111935477" cy="586.2244730703268" fill="#ffffff"/>
<circle r="1.533370258983152" cx="1556.029283039262" cy="992.2837854715096" fill="#fafafa"/>
<circle r="1.4569941023057946" cx="516.0674233451617" cy="841.1786427368694" fill="#f9f9f9"/>
<circle r="1.5526051089263537" cx="1909.2918812766304" cy="644.9472022328027" fill="#ffffff"/>
<circle r="1.4791744348374656" cx="307.0810791389383" cy="332.6377979262375" fill="#ffffff"/>
<circle r="1.5777716573473812" cx="1834.1303950970253" cy="143.92254580404907" fill="#fafafa"/>
<circle r="1.5494148906805656" cx="1515.5326352481477" cy="289.9158995042392" fill="#ffffff"/>
<circle r="1.5024732742928952" cx="661.6180534922826" cy="743.9939012336027" fill="#f9f9f9"/>
<circle r="1.5145659047266682" cx="10.732132499814497" cy="439.45741278070307" fill="#ffffff"/>
<circle r="1.4917244216113668" cx="454.62315617671163" cy="628.7569020885998" fill="#ffffff"/>
<circle r="1.4035445112877254" cx="1429.2297628412343" cy="360.81345207871254" fill="#ffffff"/>
<circle r="1.4587237843717888" cx="1893.9817577266385" cy="603.9599479304497" fill="#ffffff"/>
<circle r="1.5469204997988566" cx="1455.963421712564" cy="327.7978098757725" fill="#ffffff"/>
<circle r="1.4619639589145523" cx="1067.1748642540106" cy="467.4675033173178" fill="#f5f5f5"/>
<circle r="1.455936536306046" cx="405.38125158154844" cy="905.1984668130364" fill="#fcfcfc"/>
<circle r="1.5002940210831517" cx="1589.6363100210863" cy="182.23838624641218" fill="#ffffff"/>
<circle r="1.5394198392827452" cx="1828.1957466370957" cy="636.5839440831776" fill="#ffffff"/>
<circle r="1.7275038642261438" cx="1841.3140900156948" cy="321.573286316765" fill="#ffffff"/>
<circle r="1.5801603123687726" cx="1135.4991035419862" cy="253.96001962410205" fill="#ffffff"/>
<circle r="1.4047500017149996" cx="1826.7877614631518" cy="304.2511692564319" fill="#ffffff"/>
<circle r="1.5346650236233779" cx="13.53196242794155" cy="117.61817746697287" fill="#fdfdfd"/>
<circle r="1.49318031158145" cx="1261.7755986121786" cy="1046.7219454208816" fill="#ffffff"/>
<circle r="1.603742189875034" cx="794.952535305341" cy="99.58271846136327" fill="#f8f8f8"/>
<circle r="1.5539879032759616" cx="1590.4775484673507" cy="76.47256609688691" fill="#fbfbfb"/>
<circle r="1.678830053191577" cx="832.2137733717319" cy="1037.362841358893" fill="#f8f8f8"/>
<circle r="1.4538972147417728" cx="832.9122689378027" cy="478.13368344673506" fill="#fcfcfc"/>
<circle r="1.492564953368552" cx="303.8316030247946" cy="563.3863598446944" fill="#fefefe"/>
<circle r="1.3664153200168028" cx="437.0418849040572" cy="806.9871902294678" fill="#f8f8f8"/>
<circle r="1.7872078276596834" cx="1123.9171664911064" cy="235.0701440872724" fill="#ffffff"/>
<circle r="1.5278505434767646" cx="1770.8586915390247" cy="350.0191315427798" fill="#fafafa"/>
<circle r="1.416163756361043" cx="1565.3294433796916" cy="712.2306585329771" fill="#ffffff"/>
<circle r="1.4477594854361089" cx="912.5493056137497" cy="532.7464857774617" fill="#ffffff"/>
<circle r="1.6782388458337525" cx="674.8258848183796" cy="25.94679972748483" fill="#ffffff"/>
<circle r="1.6848651012342055" cx="966.9176042525322" cy="527.422452264153" fill="#ffffff"/>
<circle r="1.2813776383413256" cx="1864.850015735684" cy="323.15228795754194" fill="#f7f7f7"/>
<circle r="1.5227638849603427" cx="745.2308270353033" cy="96.97100212096866" fill="#ffffff"/>
<circle r="1.451378754311981" cx="555.333567537153" cy="359.21952253190193" fill="#ffffff"/>
<circle r="1.55387485379541" cx="877.2368246955903" cy="812.0310402884718" fill="#fcfcfc"/>
<circle r="1.61874060017543" cx="760.2720015033374" cy="835.8105225151525" fill="#ffffff"/>
<circle r="1.4845101677465382" cx="989.3587267763575" cy="573.716034644331" fill="#f4f4f4"/>
<circle r="1.4346126603281961" cx="28.862432652774146" cy="815.2262501499833" fill="#f7f7f7"/>
<circle r="1.5408009806680414" cx="633.7367915932176" cy="444.1675018986955" fill="#fdfdfd"/>
<circle r="1.5359575353608286" cx="1818.354271221844" cy="921.378865042973" fill="#f7f7f7"/>
<circle r="1.555699611180219" cx="669.5469673825087" cy="415.28584764304014" fill="#ffffff"/>
<circle r="1.5130315320233123" cx="740.5787271160068" cy="979.8681245958821" fill="#fcfcfc"/>
<circle r="1.4677301244474696" cx="909.5624453778089" cy="607.107611182641" fill="#ffffff"/>
<circle r="1.430837150485841" cx="404.52353841821025" cy="136.6491246631698" fill="#f8f8f8"/>
<circle r="1.5705455791920133" cx="51.92115234021891" cy="570.6925789160551" fill="#ffffff"/>
<circle r="1.5463979358797901" cx="755.1416411139224" cy="751.2957713307185" fill="#ffffff"/>
<circle r="1.4864458770023081" cx="1445.2145467851767" cy="770.7454313137592" fill="#fafafa"/>
<circle r="1.6070515335335174" cx="1024.0697299152055" cy="566.1285564080912" fill="#f5f5f5"/>
<circle r="1.4834859585645799" cx="248.72524773349298" cy="891.0385411462869" fill="#fcfcfc"/>
<circle r="1.545917644299207" cx="958.1187357282923" cy="946.5192083354907" fill="#fcfcfc"/>
<circle r="1.5157911423380708" cx="635.7552653535755" cy="954.3472594448597" fill="#ffffff"/>
<circle r="1.5647166337219016" cx="1710.1207547545341" cy="438.4126990550115" fill="#ffffff"/>
<circle r="1.4010903332220628" cx="544.3198319792391" cy="796.3548428150789" fill="#fefefe"/>
<circle r="1.3641890152287537" cx="459.92886063043903" cy="67.88007703902446" fill="#ffffff"/>
<circle r="1.5861715512160266" cx="868.6354064054225" cy="397.1729705880096" fill="#fdfdfd"/>
<circle r="1.4954236853251286" cx="1740.1967543512028" cy="174.93696661073824" fill="#f9f9f9"/>
<circle r="1.6164748967829377" cx="1528.0279057541586" cy="409.88111726374734" fill="#fafafa"/>
<circle r="1.4687494790087832" cx="1292.4901285104727" cy="985.7209871329952" fill="#ffffff"/>
<circle r="1.3596754773292323" cx="794.1649317369163" cy="1033.4077945789804" fill="#ffffff"/>
<circle r="1.3923979155255402" cx="1028.6950100437755" cy="1070.2251002860467" fill="#ffffff"/>
<circle r="1.3860451407962104" cx="250.92080381966247" cy="338.27808141356553" fill="#ffffff"/>
<circle r="1.6565914175693655" cx="844.2037595583223" cy="414.8252652089515" fill="#f5f5f5"/>
<circle r="1.471091393270076" cx="137.66317464044988" cy="353.2730324594516" fill="#ffffff"/>
<circle r="1.5774619839041717" cx="678.99294288002" cy="606.1643456054469" fill="#ffffff"/>
<circle r="1.486872102118293" cx="737.0699437321406" cy="726.0186195043373" fill="#fafafa"/>
<circle r="1.53810208544528" cx="1472.4080008057247" cy="327.7913761567098" fill="#f2f2f2"/>
<circle r="1.5084768502203887" cx="1677.865751148251" cy="825.7697737385839" fill="#fafafa"/>
<circle r="1.4571164155608094" cx="1327.1764875931237" cy="644.0142325404862" fill="#ffffff"/>
<circle r="1.510021539479408" cx="554.2833094689129" cy="713.5805556212383" fill="#f5f5f5"/>
<circle r="1.5892319895960803" cx="1485.629784818535" cy="469.7720599108762" fill="#fefefe"/>
<circle r="1.6900707816323235" cx="661.4323115654755" cy="936.9956665906881" fill="#ffffff"/>
<circle r="1.4275374849653462" cx="817.8019720346631" cy="214.7217656002048" fill="#fefefe"/>
<circle r="1.5567243493366814" cx="1599.7454217815862" cy="80.16138767865927" fill="#fdfdfd"/>
<circle r="1.3845850440600598" cx="1783.0358124427726" cy="332.449765304803" fill="#fefefe"/>
<circle r="1.4947354505464985" cx="1510.4366431032124" cy="445.47945505064877" fill="#fefefe"/>
<circle r="1.6296901107236672" cx="1656.6531945762533" cy="137.5851729453358" fill="#ffffff"/>
<circle r="1.527240581573623" cx="578.4827471583674" cy="449.15990750629265" fill="#ffffff"/>
<circle r="1.3074008552789291" cx="1142.8879969746442" cy="652.1026144366662" fill="#ffffff"/>
<circle r="1.5563380265944575" cx="186.25966986091123" cy="14.866866171831528" fill="#ffffff"/>
<circle r="1.447515257173961" cx="1218.1455902250052" cy="771.8738190612605" fill="#ffffff"/>
<circle r="1.251000168609384" cx="984.7588632450502" cy="60.42935819598835" fill="#ffffff"/>
<circle r="1.5302243363481642" cx="1015.7251075815341" cy="696.0801047711985" fill="#fcfcfc"/>
<circle r="1.4805039378904457" cx="1498.464164273873" cy="255.43621281470362" fill="#fbfbfb"/>
<circle r="1.5236378088301823" cx="1070.0366531166928" cy="961.4632238203496" fill="#fefefe"/>
<circle r="1.6253361423550332" cx="527.1446818533339" cy="593.842697844765" fill="#ffffff"/>
<circle r="1.5235621541948057" cx="1723.407664086475" cy="1035.2861057833384" fill="#ffffff"/>
<circle r="1.3471279555407607" cx="714.1683208400593" cy="441.26837337266454" fill="#ffffff"/>
<circle r="1.5029685064684162" cx="250.9744541605106" cy="503.6579690921573" fill="#ffffff"/>
<circle r="1.5920888361752379" cx="1431.9808827934598" cy="796.5131421802081" fill="#ffffff"/>
<circle r="1.464554665688575" cx="536.5786525428132" cy="485.9479621514955" fill="#ffffff"/>
<circle r="1.445570097678586" cx="1854.3210243048168" cy="393.9203901162947" fill="#fdfdfd"/>
<circle r="1.5118200761630083" cx="1715.0022972667114" cy="27.018530804248616" fill="#fbfbfb"/>
<circle r="1.712604376709064" cx="92.87546436499142" cy="870.808740562838" fill="#ffffff"/>
<circle r="1.6443465054215316" cx="1624.7668818464344" cy="70.6148272869169" fill="#ffffff"/>
<circle r="1.6222028791967809" cx="932.2293780412939" cy="106.73248825022031" fill="#ffffff"/>
<circle r="1.4758183387862558" cx="648.0003076810476" cy="313.1112509746129" fill="#fdfdfd"/>
<circle r="1.577592467991663" cx="1539.5934998375667" cy="430.17353625061264" fill="#ffffff"/>
<circle r="1.320508291954321" cx="823.6962910318026" cy="431.9033070688947" fill="#ffffff"/>
<circle r="1.5051866318792808" cx="382.1303505542707" cy="12.379041723723759" fill="#fafafa"/>
<circle r="1.5044062760138628" cx="561.1296753853445" cy="187.80163659271213" fill="#f2f2f2"/>
<circle r="1.572407713448349" cx="1790.2207771628457" cy="637.475494565655" fill="#f9f9f9"/>
<circle r="1.3242797404425997" cx="1713.9781672788088" cy="171.9303282924498" fill="#ffffff"/>
<circle r="1.398806356278328" cx="295.7508184101772" cy="409.24926454852516" fill="#f6f6f6"/>
<circle r="1.4871441063784114" cx="1669.8353975439818" cy="710.3537172738371" fill="#f9f9f9"/>
<circle r="1.4707996104635155" cx="1880.1596572036447" cy="1052.1676271533577" fill="#f8f8f8"/>
<circle r="1.4269108201978788" cx="2.9175683224229942" cy="607.3063196295536" fill="#fcfcfc"/>
<circle r="1.4661058255778272" cx="1826.87394205123" cy="326.7339885126162" fill="#f7f7f7"/>
<circle r="1.4158637481335488" cx="30.050413236363056" cy="648.5372811134781" fill="#fcfcfc"/>
<circle r="1.5310840472377276" cx="1210.5810098332186" cy="13.184383186391937" fill="#ffffff"/>
<circle r="1.5782608780856124" cx="609.1827192773061" cy="530.8720463203385" fill="#ffffff"/>
<circle r="1.6365533831694024" cx="1413.7463814550742" cy="337.5903117902675" fill="#ffffff"/>
<circle r="1.556416997866563" cx="33.578557006898464" cy="755.9530578269691" fill="#fefefe"/>
<circle r="1.5081605084006635" cx="870.828607044864" cy="356.8145616875795" fill="#ffffff"/>
<circle r="1.4985349746090133" cx="1412.8612015076785" cy="233.94215807153668" fill="#fafafa"/>
<circle r="1.4451237322263004" cx="1255.566556229606" cy="46.85840900837175" fill="#ffffff"/>
<circle r="1.4582846951980348" cx="88.43202079425417" cy="431.74977868526787" fill="#ffffff"/>
<circle r="1.3174933541861433" cx="1043.6961290197182" cy="861.9623384332841" fill="#fcfcfc"/>
<circle r="1.6720659007935814" cx="917.5610704878967" cy="143.50398263937106" fill="#ffffff"/>
<circle r="1.421112655518753" cx="524.9753618915361" cy="529.4654708731526" fill="#f8f8f8"/>
<circle r="1.5734391061944102" cx="1536.5079533778892" cy="476.00917249721124" fill="#ffffff"/>
<circle r="1.5787506810671421" cx="74.72356471278381" cy="892.3723102532521" fill="#ffffff"/>
<circle r="1.452336756658704" cx="955.5465607144098" cy="247.09417762871152" fill="#f7f7f7"/>
<circle r="1.541805328028788" cx="1199.8010007456178" cy="717.7621474470186" fill="#fafafa"/>
<circle r="1.486832393380725" cx="435.3485608316755" cy="104.27971376832255" fill="#ffffff"/>
<circle r="1.3691134002922503" cx="370.82244197767136" cy="502.9454762506215" fill="#fbfbfb"/>
<circle r="1.4352440534815436" cx="50.917889190696215" cy="369.1830020236873" fill="#f9f9f9"/>
<circle r="1.4859308717728443" cx="1414.3276849414174" cy="42.64193601417142" fill="#fcfcfc"/>
<circle r="1.5910763552656508" cx="618.0088307530946" cy="14.903828935058785" fill="#ffffff"/>
<circle r="1.3711541890158088" cx="267.2412056258019" cy="373.56570174035335" fill="#ffffff"/>
<circle r="1.506073573779229" cx="973.0342091716218" cy="377.8349600088211" fill="#ffffff"/>
<circle r="1.614309807499047" cx="1083.7927829145806" cy="885.6663767067369" fill="#ffffff"/>
<circle r="1.6156816224644566" cx="459.16040304051245" cy="399.58816525988783" fill="#ffffff"/>
<circle r="1.6294981325356248" cx="1633.5892958854377" cy="570.3993336009532" fill="#ffffff"/>
<circle r="1.4575892489622229" cx="1361.5723031498214" cy="302.69173979677635" fill="#f8f8f8"/>
<circle r="1.3951935194139922" cx="1611.8618257108303" cy="912.0325185634194" fill="#ffffff"/>
<circle r="1.490147721757213" cx="1614.091020093154" cy="1068.1537409965388" fill="#ffffff"/>
<circle r="1.4890028738359198" cx="1477.0744125362523" cy="236.1590916496529" fill="#fcfcfc"/>
<circle r="1.5232853914413231" cx="1416.5483687400783" cy="462.56832313682304" fill="#fefefe"/>
<circle r="1.5146357892288589" cx="1703.7399886689352" cy="683.2334812709483" fill="#f7f7f7"/>
<circle r="1.39095082967211" cx="790.4969346306066" cy="848.3469887188609" fill="#ffffff"/>
<circle r="1.5365690135755872" cx="886.5848871388059" cy="818.9478708732987" fill="#fefefe"/>
<circle r="1.5257273864527667" cx="1102.7633440096204" cy="620.5755418828256" fill="#fdfdfd"/>
<circle r="1.3569653853812074" cx="1456.4892084633461" cy="642.9489167902527" fill="#ffffff"/>
<circle r="1.5107775489412931" cx="839.1999777292318" cy="556.9820328396924" fill="#fefefe"/>
<circle r="1.5621339444019147" cx="1300.5508347937043" cy="675.9826799224604" fill="#ffffff"/>
<circle r="1.5579176482594812" cx="389.10175574116437" cy="897.9892503878904" fill="#ffffff"/>
<circle r="1.4607000511839532" cx="1873.6250157381894" cy="407.24398275335653" fill="#f7f7f7"/>
<circle r="1.6437923040268858" cx="1649.2962436277176" cy="597.7053680278068" fill="#f7f7f7"/>
<circle r="1.734319307167856" cx="342.7431145282935" cy="431.57113169440856" fill="#fdfdfd"/>
<circle r="1.4340748197104136" cx="1781.3594676050209" cy="367.46202180753994" fill="#fafafa"/>
<circle r="1.5498551515296084" cx="787.9302597380938" cy="395.1602314510212" fill="#fafafa"/>
<circle r="1.5250541117287215" cx="1481.1402376691349" cy="611.4326706247738" fill="#fbfbfb"/>
<circle r="1.370928017495897" cx="1254.1322535933143" cy="889.7485672974994" fill="#fbfbfb"/>
<circle r="1.5307704044639425" cx="1327.1112791819662" cy="182.8202776852739" fill="#ffffff"/>
<circle r="1.292975465029152" cx="1222.3266859976825" cy="994.5228780789437" fill="#fdfdfd"/>
<circle r="1.6107156870076267" cx="1091.4595376291081" cy="992.0529268324239" fill="#fcfcfc"/>
<circle r="1.3280706044203774" cx="277.8782641157891" cy="701.2065938946755" fill="#ffffff"/>
<circle r="1.3672000651917606" cx="625.1514936033764" cy="784.5846634736063" fill="#ffffff"/>
<circle r="1.6167830122088294" cx="1768.4518589822096" cy="1043.394078996452" fill="#fafafa"/>
<circle r="1.6778217300315328" cx="1043.044926013034" cy="648.3806131753727" fill="#fdfdfd"/>
<circle r="1.4611664233395572" cx="1479.564243243611" cy="735.986448820667" fill="#fdfdfd"/>
<circle r="1.4993215657041967" cx="69.01602266512995" cy="251.16166515114048" fill="#fefefe"/>
<circle r="1.471738960407121" cx="1370.6492380820305" cy="934.866494748458" fill="#fcfcfc"/>
<circle r="1.6899646581451133" cx="1251.951854577493" cy="914.6331000257178" fill="#fefefe"/>
<circle r="1.5276435529043253" cx="1648.0109486864217" cy="734.6473750528787" fill="#ffffff"/>
<circle r="1.5722083090951449" cx="919.3762752256314" cy="49.58735437982312" fill="#f3f3f3"/>
<circle r="1.5373443833892302" cx="796.1177098196295" cy="1065.541627168725" fill="#f9f9f9"/>
<circle r="1.442619904304028" cx="1364.9484783189844" cy="230.67861975889764" fill="#f7f7f7"/>
<circle r="1.4947488807858733" cx="1784.7885405110314" cy="264.96510807714407" fill="#ffffff"/>
<circle r="1.5087436221373276" cx="604.9914848946222" cy="241.32858975065665" fill="#ffffff"/>
<circle r="1.5511017715193514" cx="808.4492459287663" cy="399.4005717281293" fill="#fbfbfb"/>
<circle r="1.4772479528937401" cx="765.3631509280949" cy="759.1997361891725" fill="#ffffff"/>
<circle r="1.4651601383289952" cx="1243.3650379644687" cy="728.4588803994885" fill="#f1f1f1"/>
<circle r="1.5065458800198879" cx="385.86894597534064" cy="723.8992061223076" fill="#f9f9f9"/>
<circle r="1.4395834324721222" cx="1047.6791738783477" cy="393.1539787382561" fill="#ffffff"/>
<circle r="1.627818181386726" cx="583.2073076362185" cy="161.0978333211351" fill="#ffffff"/>
<circle r="1.4389503791755358" cx="1111.1971199824234" cy="174.63988578497722" fill="#fefefe"/>
<circle r="1.658472012910326" cx="1869.6173559867107" cy="715.660648485388" fill="#f2f2f2"/>
<circle r="1.3333412217623268" cx="548.1227582120316" cy="301.74984246902665" fill="#ffffff"/>
<circle r="1.489406842211044" cx="424.0637900530712" cy="130.432712127776" fill="#ffffff"/>
<circle r="1.510126467731448" cx="1049.3851367198065" cy="829.8319473315318" fill="#ffffff"/>
<circle r="1.3420271964540442" cx="1197.1161456665493" cy="1006.0109077112634" fill="#fefefe"/>
<circle r="1.4652750268093135" cx="196.72069982197166" cy="259.8001276613614" fill="#ffffff"/>
<circle r="1.517378223816082" cx="735.8847484955747" cy="877.8313511606971" fill="#f4f4f4"/>
<circle r="1.553200556083874" cx="1712.1469615603937" cy="853.2563586609072" fill="#fbfbfb"/>
<circle r="1.3855422279738414" cx="98.19682583696817" cy="589.7037343773916" fill="#ffffff"/>
<circle r="1.3702363745426727" cx="1855.699687447154" cy="670.031696384998" fill="#f8f8f8"/>
<circle r="1.4691799604221796" cx="1381.1503591838687" cy="1050.1855293203082" fill="#ffffff"/>
<circle r="1.4995645460421805" cx="555.7774825844102" cy="126.44078619051125" fill="#f9f9f9"/>
<circle r="1.6628181271368474" cx="186.60666294936533" cy="712.6133837298138" fill="#fefefe"/>
<circle r="1.4762708980198294" cx="1210.6896647048854" cy="244.29110683104065" fill="#ffffff"/>
<circle r="1.4797336538027952" cx="1393.2183782920472" cy="446.2881367393457" fill="#ffffff"/>
<circle r="1.5283311869459963" cx="1582.1298732906164" cy="130.1011879646349" fill="#ffffff"/>
<circle r="1.5339818965496874" cx="268.8778159787896" cy="115.80616208103191" fill="#ffffff"/>
<circle r="1.5831963672418803" cx="1146.9719285449285" cy="331.91821809104755" fill="#ffffff"/>
<circle r="1.439231770544605" cx="665.267872695212" cy="403.97086189200616" fill="#ffffff"/>
<circle r="1.5214224847724405" cx="605.4784961209824" cy="212.61429181888897" fill="#ffffff"/>
<circle r="1.5934475622153088" cx="1649.9565228930483" cy="102.83372190499935" fill="#ffffff"/>
<circle r="1.4984975199647934" cx="79.42418189546487" cy="4.365431615106514" fill="#ffffff"/>
<circle r="1.5611718107643222" cx="1649.3766714853807" cy="65.06611207101443" fill="#ffffff"/>
<circle r="1.4646704394125432" cx="75.15312037916516" cy="763.0493720200734" fill="#f8f8f8"/>
<circle r="1.514627401619279" cx="469.47461548895916" cy="154.07772017145913" fill="#fcfcfc"/>
<circle r="1.4092868282465365" cx="1420.8444380902822" cy="165.35604569798323" fill="#f5f5f5"/>
<circle r="1.493131195023304" cx="620.0686561010853" cy="505.20297945813735" fill="#fcfcfc"/>
<circle r="1.5538079053498883" cx="852.8414199435457" cy="70.2656115770921" fill="#fbfbfb"/>
<circle r="1.4860896371096246" cx="961.1600944746845" cy="501.89429236967084" fill="#fefefe"/>
<circle r="1.4736781281441547" cx="1541.0688828555756" cy="925.1289005792014" fill="#fefefe"/>
<circle r="1.5659488087734377" cx="801.7407735599488" cy="34.10218717402679" fill="#f4f4f4"/>
<circle r="1.510570451764452" cx="1797.8310995792476" cy="72.05371614475467" fill="#ffffff"/>
<circle r="1.4513662748864231" cx="191.71439053375343" cy="400.4333272101847" fill="#fbfbfb"/>
<circle r="1.6197162719951117" cx="914.9902576400481" cy="893.7899086662005" fill="#ffffff"/>
<circle r="1.4207196913643543" cx="746.5663689667633" cy="716.7260308204285" fill="#fcfcfc"/>
<circle r="1.6931167529100368" cx="834.0678594692979" cy="769.3825977549028" fill="#ffffff"/>
<circle r="1.5928485314860215" cx="1465.7890420794656" cy="478.34511060725765" fill="#ffffff"/>
<circle r="1.5330924890845428" cx="11.192417830485297" cy="176.17532303976327" fill="#fcfcfc"/>
<circle r="1.4762977979461698" cx="1507.7026434980282" cy="119.00903604831609" fill="#ffffff"/>
<circle r="1.5223142350968604" cx="830.1565588835688" cy="909.9587745563107" fill="#fcfcfc"/>
<circle r="1.5639101399721471" cx="971.5988785551043" cy="1031.542342144936" fill="#ffffff"/>
<circle r="1.4270389986522647" cx="92.52195982761187" cy="715.4324033762388" fill="#ffffff"/>
<circle r="1.6914556169289452" cx="673.7380865730588" cy="15.488186436175164" fill="#ffffff"/>
<circle r="1.5358533346313399" cx="1407.1501721947247" cy="796.8487593939066" fill="#fcfcfc"/>
<circle r="1.43797727277213" cx="1857.23856656543" cy="683.5388115539214" fill="#ffffff"/>
<circle r="1.3582473494676588" cx="620.2339067835326" cy="593.6234054540158" fill="#fefefe"/>
<circle r="1.5107734433881392" cx="640.5397141357449" cy="1025.2410951647907" fill="#ffffff"/>
<circle r="1.4759605455730171" cx="639.6141663313235" cy="1062.2269738681123" fill="#f9f9f9"/>
<circle r="1.5158914009917699" cx="1326.142518095072" cy="648.8587059688396" fill="#ffffff"/>
<circle r="1.5859024101519412" cx="1560.0481248970207" cy="237.61415529222288" fill="#ffffff"/>
<circle r="1.5361065089674546" cx="50.25156960112291" cy="274.3629064698383" fill="#ffffff"/>
<circle r="1.4285163769187579" cx="926.7096571440153" cy="443.8184269127823" fill="#fcfcfc"/>
<circle r="1.5741358446194662" cx="943.3596406065813" cy="543.363513850638" fill="#ffffff"/>
<circle r="1.3311851842930178" cx="1072.6616731035715" cy="99.62583680223389" fill="#fefefe"/>
<circle r="1.5572188225380428" cx="694.3332880063142" cy="42.682230540834304" fill="#fafafa"/>
<circle r="1.5145893018351488" cx="1814.0131593775272" cy="961.1588897596243" fill="#ffffff"/>
<circle r="1.5291002373005906" cx="1461.99103173985" cy="345.710800006707" fill="#ffffff"/>
<circle r="1.6410206257684499" cx="207.3100832764861" cy="981.1232987784884" fill="#fafafa"/>
<circle r="1.6273530678709796" cx="1813.1438569208221" cy="536.289034291898" fill="#ffffff"/>
<circle r="1.5494216507527496" cx="1334.104469973708" cy="640.0148959777118" fill="#ffffff"/>
<circle r="1.5338485638642367" cx="1341.2801429451547" cy="273.2940005138589" fill="#f6f6f6"/>
<circle r="1.524516522101662" cx="921.0949850579609" cy="76.36455452643105" fill="#f9f9f9"/>
<circle r="1.6535589240816173" cx="1277.5430248906118" cy="187.12877241485566" fill="#f5f5f5"/>
<circle r="1.5281606498042901" cx="1038.964602707" cy="279.9857553293762" fill="#fcfcfc"/>
<circle r="1.671135722706474" cx="463.0610534960735" cy="948.8912812411637" fill="#fbfbfb"/>
<circle r="1.5994595831850429" cx="1057.423334930788" cy="344.04170296828687" fill="#fafafa"/>
<circle r="1.5325730119612726" cx="1502.8496053963518" cy="422.10359400158376" fill="#fefefe"/>
<circle r="1.4523378899001826" cx="911.982425033908" cy="990.6718480191479" fill="#ffffff"/>
<circle r="1.5681834409195157" cx="751.9185907250061" cy="892.8074325523298" fill="#ffffff"/>
<circle r="1.5751039624739587" cx="216.75276257974025" cy="391.7252933990733" fill="#f9f9f9"/>
<circle r="1.486102235511373" cx="1505.4580417934865" cy="714.7692568160891" fill="#f9f9f9"/>
<circle r="1.5829136951646405" cx="1248.4841837201159" cy="1004.9459490357606" fill="#ffffff"/>
<circle r="1.6428801962299133" cx="990.6545514211749" cy="469.7672263699976" fill="#fafafa"/>
<circle r="1.4940210621135686" cx="955.5810016248867" cy="238.3075469964562" fill="#ffffff"/>
<circle r="1.6221637999490215" cx="242.51174854776713" cy="334.69836109900433" fill="#ffffff"/>
<circle r="1.3216566632403473" cx="1580.608706397545" cy="955.3932781358523" fill="#fbfbfb"/>
<circle r="1.4220444167610604" cx="277.1984510155328" cy="671.3796667064962" fill="#ffffff"/>
<circle r="1.547554920226043" cx="1762.4904519070672" cy="711.1068987436024" fill="#ffffff"/>
<circle r="1.5972210202406047" cx="1679.6797751577192" cy="222.83834417293966" fill="#fdfdfd"/>
<circle r="1.6256716258716133" cx="1640.0823688744283" cy="67.00846717966877" fill="#fcfcfc"/>
<circle r="1.6600348038498822" cx="1918.4141313267855" cy="472.92214064163716" fill="#ffffff"/>
<circle r="1.4325556789494565" cx="1126.7219918094281" cy="333.08770815915835" fill="#fdfdfd"/>
<circle r="1.501332432187976" cx="881.130302438023" cy="661.9345004234071" fill="#ffffff"/>
<circle r="1.4797785116073214" cx="1567.820951146378" cy="56.4771526483855" fill="#ffffff"/>
<circle r="1.5761991499430037" cx="359.50398656183654" cy="4.4344439424527105" fill="#fafafa"/>
<circle r="1.671913823607138" cx="1044.182869090846" cy="617.1232809553813" fill="#ffffff"/>
<circle r="1.5075113564270124" cx="854.122322981064" cy="712.8349883694758" fill="#ffffff"/>
<circle r="1.660308087345453" cx="319.27965102331405" cy="890.5685819465937" fill="#ffffff"/>
<circle r="1.526423575583722" cx="1883.186281143156" cy="876.4935491080633" fill="#ffffff"/>
<circle r="1.5151891512405804" cx="20.821757495989033" cy="562.828730517037" fill="#ffffff"/>
<circle r="1.366868197195182" cx="1644.891864982741" cy="257.66075721394634" fill="#ffffff"/>
<circle r="1.4738504119561229" cx="1322.33053117666" cy="542.7493393937136" fill="#fcfcfc"/>
<circle r="1.4053157292711285" cx="60.00168651046643" cy="548.0990042995276" fill="#ffffff"/>
<circle r="1.696511117323947" cx="161.51248988357537" cy="754.641645470312" fill="#fbfbfb"/>
<circle r="1.4962569406471689" cx="582.1237153823025" cy="901.1417329821396" fill="#ffffff"/>
<circle r="1.6617475401573614" cx="1878.8761062987871" cy="878.0442604878414" fill="#ffffff"/>
<circle r="1.411448320085823" cx="191.1725114427614" cy="409.76643451675733" fill="#ffffff"/>
<circle r="1.4479824678705646" cx="1096.7664469084464" cy="17.212446690653316" fill="#ffffff"/>
<circle r="1.560165351147529" cx="1759.11362098182" cy="281.68858810070174" fill="#fbfbfb"/>
<circle r="1.42002252569214" cx="1075.8697872839257" cy="1001.3722865809658" fill="#ffffff"/>
<circle r="1.428637159109696" cx="915.4912961591807" cy="269.20918689445165" fill="#ffffff"/>
<circle r="1.293071748051596" cx="483.50283965534925" cy="926.986347917931" fill="#ffffff"/>
<circle r="1.6120822408606306" cx="887.3690461211869" cy="831.8437859459875" fill="#ffffff"/>
<circle r="1.4667684499874643" cx="201.3219758856333" cy="1047.383202226108" fill="#fcfcfc"/>
<circle r="1.5647067794060534" cx="895.1859844695873" cy="608.6888829392623" fill="#fcfcfc"/>
<circle r="1.4344527959346502" cx="1190.7432020107508" cy="53.00285567309656" fill="#ffffff"/>
<circle r="1.5843025313497292" cx="629.9114446424455" cy="854.1257866734934" fill="#ffffff"/>
<circle r="1.5271520147155455" cx="455.401539381563" cy="212.9776280554484" fill="#f9f9f9"/>
<circle r="1.375701475750921" cx="870.3097087738688" cy="341.93515246236575" fill="#ffffff"/>
<circle r="1.523224178610607" cx="550.3207068781456" cy="989.7923080413411" fill="#fdfdfd"/>
<circle r="1.756176185759882" cx="198.9538985932083" cy="1022.1667969655153" fill="#ffffff"/>
<circle r="1.493801762511329" cx="1736.6470762491865" cy="302.31185433904545" fill="#f8f8f8"/>
<circle r="1.3834551285421237" cx="274.0966654808009" cy="1038.0396316622969" fill="#ffffff"/>
<circle r="1.5361893135465086" cx="375.15962050794" cy="226.47780336750964" fill="#ffffff"/>
<circle r="1.5434228868714068" cx="1330.177120746522" cy="906.4106745320576" fill="#fafafa"/>
<circle r="1.5453317314645032" cx="798.5081174131846" cy="1024.7751990054696" fill="#fefefe"/>
<circle r="1.4952490254691249" cx="1399.6586619747432" cy="836.0027589278071" fill="#ffffff"/>
<circle r="1.5375931715979756" cx="208.2525603716509" cy="590.9214408495155" fill="#fafafa"/>
<circle r="1.5540347397914875" cx="1376.330269155484" cy="691.0502449043781" fill="#fbfbfb"/>
<circle r="1.516473470877755" cx="1681.2729307352656" cy="1006.3158428450298" fill="#ffffff"/>
<circle r="1.6241876976655045" cx="901.7140502949662" cy="845.3110885417726" fill="#ffffff"/>
<circle r="1.4962085610071216" cx="51.38969154694003" cy="175.45427314425322" fill="#ffffff"/>
<circle r="1.6622158467390449" cx="1742.1171617871237" cy="1076.6923022365634" fill="#ffffff"/>
<circle r="1.4191797633138552" cx="947.6821434248384" cy="1062.5105807989694" fill="#ffffff"/>
<circle r="1.6802150432014784" cx="1713.8462349262195" cy="114.20747102292242" fill="#ffffff"/>
<circle r="1.44650351928907" cx="141.73614327023472" cy="849.8230337098373" fill="#fdfdfd"/>
<circle r="1.4518055952580384" cx="1220.7429278760862" cy="347.70046166161615" fill="#fbfbfb"/>
<circle r="1.5360507724941368" cx="1286.371385315964" cy="570.2465491021162" fill="#fefefe"/>
<circle r="1.5237270563417462" cx="433.43942393989437" cy="660.1928154911039" fill="#f5f5f5"/>
<circle r="1.3333160769549786" cx="388.0739196282466" cy="201.19917261060624" fill="#ffffff"/>
<circle r="1.3787651807884382" cx="976.3048599365727" cy="316.48017226028384" fill="#fdfdfd"/>
<circle r="1.4923712943132907" cx="463.8026934828092" cy="996.924177950548" fill="#f6f6f6"/>
<circle r="1.5533014808682015" cx="900.2933711055548" cy="535.6490397802396" fill="#ffffff"/>
<circle r="1.4511018602689494" cx="377.1721772745878" cy="719.3837770828774" fill="#ffffff"/>
<circle r="1.4244746546282894" cx="1632.7629988805295" cy="388.7277869492283" fill="#f9f9f9"/>
<circle r="1.4830898265231394" cx="1417.4863207468504" cy="256.80746144309694" fill="#ffffff"/>
<circle r="1.5000925908892688" cx="1119.603721007635" cy="650.8099256032971" fill="#ffffff"/>
<circle r="1.5085083492412894" cx="484.49230036080365" cy="237.37727056132772" fill="#fdfdfd"/>
<circle r="1.4112567728738674" cx="740.7021398895391" cy="647.7061927450583" fill="#fafafa"/>
<circle r="1.547779101348664" cx="1682.2536710807883" cy="396.3183919486169" fill="#ffffff"/>
<circle r="1.6951003991345683" cx="944.2794850729806" cy="874.2617160601278" fill="#ffffff"/>
<circle r="1.6756946266344215" cx="600.368034996612" cy="556.5090794214092" fill="#ffffff"/>
<circle r="1.4963588521106304" cx="369.28611023970456" cy="945.9892581249593" fill="#ffffff"/>
<circle r="1.5074088164744444" cx="1271.6733042018452" cy="261.5656149241636" fill="#ffffff"/>
<circle r="1.4138320164518543" cx="1654.6765601050884" cy="340.55690267708485" fill="#ffffff"/>
<circle r="1.5422330589585682" cx="1282.2260232160754" cy="218.4150600180591" fill="#fdfdfd"/>
<circle r="1.5965666189775924" cx="1548.1183980502994" cy="1027.1292860665267" fill="#ffffff"/>
<circle r="1.4062666643037085" cx="1067.5715914468028" cy="1013.4196554491945" fill="#fdfdfd"/>
<circle r="1.5097845454906669" cx="788.2153382643762" cy="617.9574374393372" fill="#f4f4f4"/>
<circle r="1.4653826257939448" cx="153.14343909768695" cy="1024.8994213098074" fill="#f9f9f9"/>
<circle r="1.4998281087548175" cx="1052.7767499819338" cy="684.6964029671309" fill="#fcfcfc"/>
<circle r="1.5753569177134115" cx="1516.7016963320746" cy="349.4986228805548" fill="#fefefe"/>
<circle r="1.6224901864276708" cx="1297.2426491843007" cy="1027.4392109174835" fill="#ffffff"/>
<circle r="1.5775511772131234" cx="268.20691219821595" cy="927.0300020327386" fill="#ffffff"/>
<circle r="1.3425685372712775" cx="111.83218704712402" cy="294.843427168686" fill="#ffffff"/>
<circle r="1.564145140458932" cx="745.1330474483738" cy="883.3960383786839" fill="#fafafa"/>
<circle r="1.437423404672704" cx="1876.8899305679588" cy="749.1078281888825" fill="#ffffff"/>
<circle r="1.4592878759880743" cx="1506.3354302109203" cy="904.8370700045754" fill="#ffffff"/>
<circle r="1.6718273459204784" cx="1641.335001463954" cy="752.4103060764871" fill="#fdfdfd"/>
<circle r="1.5072008488878674" cx="990.7713413567087" cy="748.4074877949339" fill="#ffffff"/>
<circle r="1.4095085654646615" cx="572.4475652403497" cy="982.256240218628" fill="#ffffff"/>
<circle r="1.4519549364229813" cx="1326.5910508932295" cy="936.2528306463555" fill="#f1f1f1"/>
<circle r="1.5015981236011404" cx="386.25464943817803" cy="867.3841917727142" fill="#f9f9f9"/>
<circle r="1.4729811056800202" cx="124.08366873656881" cy="379.8938991605946" fill="#fcfcfc"/>
<circle r="1.5411219224356942" cx="673.1295097494733" cy="703.5362925401994" fill="#ffffff"/>
<circle r="1.5082276574402798" cx="378.04712814506286" cy="606.555577961527" fill="#fcfcfc"/>
<circle r="1.5568287868311652" cx="1338.9457552699948" cy="447.87384646979984" fill="#fafafa"/>
<circle r="1.4039446751463662" cx="1465.5006278231992" cy="372.4648498726429" fill="#fdfdfd"/>
<circle r="1.4877297134452938" cx="1415.0564999543385" cy="602.4771890915065" fill="#ffffff"/>
<circle r="1.3878226119331039" cx="1049.5559508093345" cy="530.1416240166311" fill="#f9f9f9"/>
<circle r="1.4953260405470619" cx="533.5530399520237" cy="836.0857457155778" fill="#ffffff"/>
<circle r="1.4127925021413248" cx="585.9517150305933" cy="240.11769345738378" fill="#ffffff"/>
<circle r="1.6072569158607035" cx="1184.839735950346" cy="644.4740041509575" fill="#ffffff"/>
<circle r="1.4814684459116623" cx="1203.0306079216668" cy="155.7400292224041" fill="#f8f8f8"/>
<circle r="1.444527590684818" cx="595.4628044633711" cy="597.8089646950469" fill="#ffffff"/>
<circle r="1.6172977358303244" cx="896.4949125937045" cy="941.324662866813" fill="#ffffff"/>
<circle r="1.5477409219910103" cx="751.913263434954" cy="76.6287503406708" fill="#ffffff"/>
<circle r="1.5052940351297601" cx="215.0416125873935" cy="767.501890745654" fill="#ffffff"/>
<circle r="1.5911863505217172" cx="180.7459101618275" cy="34.6707492776426" fill="#ffffff"/>
<circle r="1.610618213884058" cx="1340.3783415742846" cy="533.225792884578" fill="#ffffff"/>
<circle r="1.4413813024431401" cx="104.92641600819844" cy="519.2351469133959" fill="#ffffff"/>
<circle r="1.6260678642259219" cx="369.2469089043783" cy="780.7253875860558" fill="#ffffff"/>
<circle r="1.4388650255495183" cx="255.99662860498867" cy="676.588343066221" fill="#fafafa"/>
<circle r="1.4078464692976653" cx="1589.0183191835915" cy="896.7431240526164" fill="#fbfbfb"/>
<circle r="1.4733039474665157" cx="616.4105177216187" cy="797.2774347678211" fill="#f9f9f9"/>
<circle r="1.6131001595252912" cx="1685.0653834704983" cy="748.5905204793273" fill="#ffffff"/>
<circle r="1.3324157748823304" cx="166.02262009849824" cy="572.5968940746193" fill="#ffffff"/>
<circle r="1.3399326053476832" cx="1012.9384566217589" cy="518.2457302058731" fill="#fefefe"/>
<circle r="1.5972700577006405" cx="640.0214520509782" cy="906.9054980461898" fill="#fdfdfd"/>
<circle r="1.4514635281339938" cx="1665.3225055996097" cy="78.07173777626363" fill="#f6f6f6"/>
<circle r="1.4396855354824027" cx="201.25392257237152" cy="199.32560433866482" fill="#ffffff"/>
<circle r="1.4990944657349816" cx="406.53585369538087" cy="3.8273896644008376" fill="#ffffff"/>
<circle r="1.4713245499481113" cx="1195.291697322254" cy="802.1806110461087" fill="#fdfdfd"/>
<circle r="1.6651696645024319" cx="304.1666592652041" cy="60.56776829755017" fill="#fafafa"/>
<circle r="1.5037836957684214" cx="994.8158154253101" cy="520.3480972954205" fill="#fdfdfd"/>
<circle r="1.5887931540873332" cx="1793.8634589672743" cy="251.22516831181588" fill="#f6f6f6"/>
<circle r="1.4681713737654543" cx="1444.335956953927" cy="468.5226228475257" fill="#f8f8f8"/>
<circle r="1.411156196407449" cx="187.38385106673448" cy="436.72161016893443" fill="#ffffff"/>
<circle r="1.4886344936619196" cx="228.64783115734454" cy="449.2746791731502" fill="#fcfcfc"/>
<circle r="1.5396151502298885" cx="175.80119802604338" cy="627.2612852622137" fill="#f6f6f6"/>
<circle r="1.5310425649224075" cx="1747.1605870160747" cy="347.5458325983295" fill="#ffffff"/>
<circle r="1.63897965909149" cx="1132.8205061557928" cy="957.337059228664" fill="#ffffff"/>
<circle r="1.4202651810894171" cx="1500.3877531179621" cy="841.142302413065" fill="#ffffff"/>
<circle r="1.3916827604229969" cx="1592.2447976763654" cy="785.351267283667" fill="#fdfdfd"/>
<circle r="1.4510248538575996" cx="1007.6516288018552" cy="443.8151638003223" fill="#f9f9f9"/>
<circle r="1.5125566384975158" cx="735.5545187031306" cy="284.2998499299491" fill="#fbfbfb"/>
<circle r="1.4273649555391918" cx="1215.851538580882" cy="194.20325929787214" fill="#fdfdfd"/>
<circle r="1.5419965665844615" cx="385.9735169740932" cy="195.89797191651473" fill="#fbfbfb"/>
<circle r="1.5907293285907365" cx="118.8423425980126" cy="202.10513221649913" fill="#ffffff"/>
<circle r="1.5192830687476249" cx="1089.008318805532" cy="612.0393695780738" fill="#f9f9f9"/>
<circle r="1.5036673852443068" cx="1789.5620948437936" cy="803.2581492113889" fill="#fdfdfd"/>
<circle r="1.520106788028493" cx="638.9717594161334" cy="8.521800247876712" fill="#ffffff"/>
<circle r="1.5899635845263873" cx="1670.1616486204928" cy="758.3732505401647" fill="#fdfdfd"/>
<circle r="1.555429682042468" cx="1715.9246507138707" cy="103.4257323371457" fill="#ffffff"/>
<circle r="1.3442576601655984" cx="43.71624870562272" cy="409.263041034227" fill="#ffffff"/>
<circle r="1.6984951086151177" cx="83.08590545781733" cy="111.00332791065661" fill="#fefefe"/>
<circle r="1.3866610941054351" cx="1430.6930946263608" cy="454.3175487635746" fill="#fcfcfc"/>
<circle r="1.3402962758744406" cx="879.8104342058964" cy="114.74724887833143" fill="#ffffff"/>
<circle r="1.5593956028711329" cx="1529.092448147345" cy="1058.8831320479737" fill="#fdfdfd"/>
<circle r="1.4337308552226966" cx="1896.6260340196704" cy="26.476603122230188" fill="#ffffff"/>
<circle r="1.555924323802058" cx="297.34413793129187" cy="925.0327222450856" fill="#ffffff"/>
<circle r="1.4740114922539673" cx="503.16607447467084" cy="1077.706192637835" fill="#ffffff"/>
<circle r="1.6268793215249049" cx="1742.5187968858547" cy="919.9133554905496" fill="#f7f7f7"/>
<circle r="1.2921125350628455" cx="1166.8384689350205" cy="115.70022581063661" fill="#ffffff"/>
<circle r="1.376922578560867" cx="452.1251296514179" cy="1038.5784919393116" fill="#fefefe"/>
<circle r="1.6021190813870336" cx="425.2410348129089" cy="986.318056963457" fill="#fafafa"/>
<circle r="1.5222166593756232" cx="587.0056620318361" cy="175.27194008176426" fill="#f9f9f9"/>
<circle r="1.6461134870942657" cx="1189.80580561844" cy="306.81678467372683" fill="#ffffff"/>
<circle r="1.5834600580042784" cx="1652.9251342489288" cy="995.9670461925623" fill="#ffffff"/>
<circle r="1.5788437871275127" cx="1570.9114627582023" cy="212.30100874511925" fill="#fbfbfb"/>
</svg>
